<svg width="52" height="52" viewBox="0 0 52 52" fill="none" xmlns="http://www.w3.org/2000/svg">
<rect width="52" height="52" rx="26" fill="#CF0337"/>
<path fill-rule="evenodd" clip-rule="evenodd" d="M12.5092 21.1811C12.426 18.1497 12.4547 14.8744 12.5092 11.5455V11.5359C12.5133 11.2387 12.756 11 13.0547 11H35.2914C35.4414 11 35.5832 11.0614 35.6869 11.1677C35.7823 11.2686 35.8369 11.405 35.8369 11.5454V11.5686V22.3849C35.9746 24.6662 36.2187 26.7635 36.5923 28.6399C37.1814 31.6017 38.0869 33.9991 39.4233 35.6667C39.5542 35.829 39.5814 36.0526 39.4887 36.2422C39.3987 36.4331 39.2078 36.5517 38.9992 36.5517H35.8369V40.4545C35.8369 40.7559 35.5928 41 35.2915 41H13.0547C12.752 41 12.5093 40.7559 12.5093 40.4545L12.5092 21.1811ZM34.7215 12.0911H13.5987V14.2716H34.6479C34.6683 13.557 34.6929 12.8288 34.7215 12.0911ZM35.837 35.461H37.937C37.0424 34.066 36.3511 32.3151 35.837 30.2602C35.7238 29.8075 35.6188 29.3371 35.522 28.853C35.1374 26.9193 34.8865 24.7553 34.7474 22.3976C34.6165 20.2076 34.5811 17.8538 34.6247 15.3641H13.5989V21.2414C13.6849 24.3014 13.8867 27.1065 14.2999 29.4492C14.803 32.306 15.5844 34.4632 16.933 35.463C16.933 35.463 28.8702 35.463 34.7475 35.4617L35.837 35.461ZM13.5988 31.3972V39.9091H34.7475V36.5518H16.7613C16.6522 36.5518 16.5472 36.5205 16.4585 36.4618C15.1481 35.5864 14.2166 33.8164 13.5988 31.3972ZM34.7475 32.2604C34.7107 32.27 34.6738 32.2727 34.6343 32.2727H24.2705C23.9705 32.2727 23.725 32.0272 23.725 31.7272C23.725 31.4259 23.9705 31.1818 24.2705 31.1818H34.6343C34.6738 31.1818 34.7107 31.1859 34.7475 31.1927C34.9943 31.2445 35.1797 31.4641 35.1797 31.7272C35.1797 31.989 34.9943 32.21 34.7475 32.2604ZM23.7253 30.0786C23.4239 30.0786 23.1812 29.8318 23.1812 29.5318C23.1812 29.2304 23.4239 28.9863 23.7253 28.9863H34.0901C34.3901 28.9863 34.6342 29.2304 34.6342 29.5318C34.6342 29.8318 34.3901 30.0786 34.0901 30.0786H23.7253ZM22.6344 26.8045C22.333 26.8045 22.0903 26.5604 22.0903 26.2577C22.0903 25.9591 22.333 25.7122 22.6344 25.7122H32.9992C33.2992 25.7122 33.5433 25.9591 33.5433 26.2577C33.5433 26.5604 33.2992 26.8045 32.9992 26.8045H22.6344ZM21.5435 29V32.2727C21.5435 32.5727 21.2994 32.8195 20.998 32.8195H17.7253C17.4239 32.8195 17.1812 32.5727 17.1812 32.2727V29C17.1812 28.7 17.4239 28.4532 17.7253 28.4532H20.998C21.2994 28.4532 21.5435 28.7 21.5435 29ZM20.4525 29.5454H18.2707V31.7273H20.4525V29.5454ZM19.9071 23.5467V26.818C19.9071 27.1208 19.663 27.3635 19.3616 27.3635H16.0903C15.7875 27.3635 15.5435 27.1208 15.5435 26.818V23.5467C15.5435 23.2439 15.7875 22.9998 16.0903 22.9998H19.3616C19.663 22.9998 19.9071 23.2439 19.9071 23.5467ZM18.8162 24.0894H16.6344V26.2726H18.8162V24.0894ZM22.6345 24.6226C22.3332 24.6226 22.0904 24.3771 22.0904 24.0771C22.0904 23.7757 22.3332 23.5316 22.6345 23.5316H32.9994C33.2994 23.5316 33.5435 23.7757 33.5435 24.0771C33.5435 24.3771 33.2994 24.6226 32.9994 24.6226H22.6345ZM22.6345 19.1544C22.3332 19.1544 22.0904 18.9103 22.0904 18.6076C22.0904 18.3076 22.3332 18.0621 22.6345 18.0621H32.9994C33.2994 18.0621 33.5435 18.3076 33.5435 18.6076C33.5435 18.9103 33.2994 19.1544 32.9994 19.1544H22.6345ZM22.6345 21.3362C22.3332 21.3362 22.0904 21.0908 22.0904 20.7908C22.0904 20.4894 22.3332 20.2453 22.6345 20.2453H32.9994C33.2994 20.2453 33.5435 20.4894 33.5435 20.7908C33.5435 21.0908 33.2994 21.3362 32.9994 21.3362H22.6345Z" fill="white"/>
<path fill-rule="evenodd" clip-rule="evenodd" d="M20.5707 17.7968V21.0682C20.5707 21.3709 20.3266 21.6136 20.0252 21.6136H16.7538C16.4511 21.6136 16.207 21.3709 16.207 21.0682V17.7968C16.207 17.4941 16.4511 17.25 16.7538 17.25H20.0252C20.3266 17.25 20.5707 17.4941 20.5707 17.7968ZM19.4794 18.3395H17.2976V20.5227H19.4794V18.3395Z" fill="white"/>
</svg>
