<svg width="53" height="52" viewBox="0 0 53 52" fill="none" xmlns="http://www.w3.org/2000/svg">
<rect x="0.5" width="52" height="52" rx="26" fill="#CF0337"/>
<path d="M9.32589 14.94C9.31022 15.0688 9.30326 15.1977 9.30326 15.3283C9.30326 17.1929 10.8197 18.7094 12.6844 18.7094C14.5491 18.7094 16.0655 17.1929 16.0655 15.3283C16.0655 15.1977 16.0568 15.0671 16.0429 14.94C16.2222 14.8268 16.3424 14.6284 16.3424 14.4003V12.7446C16.3424 11.7835 15.5606 11 14.5978 11H10.7727C9.81164 11 9.02812 11.7817 9.02812 12.7446V14.4003C9.02812 14.6284 9.14825 14.8269 9.32758 14.94H9.32589ZM12.6844 17.4297C11.5249 17.4297 10.583 16.4861 10.583 15.3283C10.583 15.2308 10.5917 15.135 10.6056 15.0393H14.765C14.7772 15.135 14.7876 15.2308 14.7876 15.3283C14.7876 16.4878 13.844 17.4297 12.6862 17.4297H12.6844ZM10.3061 12.7426C10.3061 12.4867 10.5151 12.2777 10.771 12.2777H14.5961C14.8521 12.2777 15.061 12.4867 15.061 12.7426V13.7594H10.3061V12.7426ZM46.2261 30.6598L45.2111 27.31C45.1798 27.2073 45.1606 27.1028 45.1536 26.9949L44.9743 24.493C44.9552 24.2335 44.9012 23.9811 44.8107 23.7373L42.018 16.244C41.7116 15.4205 40.9786 14.8268 40.1063 14.6962C36.4413 14.1495 28.5824 14.0363 24.6352 14.6805C23.7855 14.8198 23.07 15.41 22.7687 16.2196L19.9674 23.7357C19.8768 23.9777 19.8211 24.2319 19.8037 24.4913L19.6244 26.9932C19.6174 27.0994 19.5965 27.2056 19.5669 27.3083L18.5519 30.6581C18.5345 30.7191 18.524 30.78 18.524 30.8427V36.6543C18.524 37.4691 19.1613 38.1569 19.9726 38.2195L20.1275 38.2317V39.7447C20.1275 40.4376 20.6916 41 21.3829 41H23.7681C24.4611 41 25.0234 40.4359 25.0234 39.7447V38.5643H39.7547V39.7447C39.7547 40.4376 40.3188 41 41.01 41H43.3953C44.0882 41 44.6506 40.4359 44.6506 39.7447V38.2335L44.8073 38.2213C45.6186 38.1586 46.2541 37.4709 46.2541 36.6578V30.8444C46.2541 30.7817 46.2453 30.719 46.2261 30.6598ZM23.9668 16.6702C24.1096 16.2889 24.4438 16.0103 24.8408 15.9459C28.6137 15.3296 36.4137 15.4428 39.9166 15.9633C40.3292 16.0243 40.6739 16.3046 40.8184 16.6911L43.3099 23.375C35.7938 23.8155 28.9824 23.8155 21.4664 23.375L23.9648 16.6684L23.9668 16.6702ZM21.0749 24.6338C24.9261 24.8636 28.6573 24.9802 32.3884 24.9802C36.1195 24.9802 39.8505 24.8636 43.7019 24.6338L43.7716 25.6018C35.9177 26.0789 28.8594 26.0789 21.0055 25.6018L21.0749 24.6338ZM20.899 27.0869L20.9147 26.8763C24.8234 27.113 28.6068 27.2332 32.3882 27.2332C36.1716 27.2332 39.9551 27.113 43.8618 26.8763L43.8774 27.0869V27.0939L39.9392 29.4043C39.7442 29.5192 39.624 29.7281 39.624 29.9562V33.4227H25.0234V29.9562C25.0234 29.7299 24.9032 29.5192 24.7082 29.4043L20.8936 27.1653C20.8971 27.1392 20.8988 27.1131 20.9023 27.0869L20.899 27.0869ZM19.8022 30.9399L20.5561 28.4502L23.7439 30.3201V33.4209H19.8021V30.9382L19.8022 30.9399ZM23.744 39.7235H21.4057V38.3324L23.744 38.5118V39.7235ZM43.3709 39.7235H41.0327V38.517L43.3709 38.3342V39.7235ZM44.9745 36.6593C44.9745 36.809 44.8578 36.9361 44.7063 36.9483L40.3676 37.2861H24.4788L20.0705 36.9465C19.9207 36.9344 19.8023 36.8073 19.8023 36.6575V34.7023H44.9749L44.9745 36.6593ZM44.9745 33.4226H40.9021V30.3218L44.1997 28.3875L44.9745 30.9417V33.4244V33.4226ZM44.1858 31.6189C44.1858 31.9723 43.8985 32.2579 43.5468 32.2579H42.2027C41.8493 32.2579 41.5637 31.9706 41.5637 31.6189C41.5637 31.2654 41.851 30.9799 42.2027 30.9799H43.5468C43.9002 30.9799 44.1858 31.2672 44.1858 31.6189ZM12.7648 21.6982H11.8717C11.5182 21.6982 11.2327 21.9855 11.2327 22.3372V25.969C11.2327 26.3225 11.52 26.608 11.8717 26.608C12.2251 26.608 12.5106 26.3207 12.5106 25.969V25.0184H12.7648C13.6981 25.0184 14.4571 24.2732 14.4571 23.3574C14.4571 22.4416 13.6981 21.6964 12.7648 21.6964L12.7648 21.6982ZM12.7648 23.7405H12.5106V22.9762H12.7648C12.9842 22.9762 13.1774 23.1555 13.1774 23.3575C13.1774 23.5612 12.9842 23.7388 12.7648 23.7388V23.7405ZM23.0808 31.6189C23.0808 31.9723 22.7936 32.2579 22.4419 32.2579H21.0978C20.7443 32.2579 20.4588 31.9706 20.4588 31.6189C20.4588 31.2654 20.7461 30.9799 21.0978 30.9799H22.4419C22.7953 30.9799 23.0808 31.2672 23.0808 31.6189ZM18.6219 21.7856C18.6219 20.1647 17.304 18.8466 15.683 18.8466H9.68503C8.06411 18.8466 6.74609 20.1646 6.74609 21.7856V29.1991C6.74609 29.5526 7.03337 29.8381 7.38507 29.8381H9.24801V30.7765L8.30609 40.1401C8.28868 40.3194 8.34613 40.4987 8.46801 40.6328C8.58988 40.7669 8.76225 40.8435 8.94158 40.8435H10.9281C11.2328 40.8435 11.4957 40.6293 11.5549 40.3299L12.6866 34.6938L13.8096 40.3281C13.8688 40.6276 14.1317 40.8417 14.4363 40.8417H16.4229C16.6022 40.8417 16.7746 40.7668 16.8947 40.6328C17.0166 40.5004 17.0758 40.3229 17.0584 40.1435L16.2035 30.7764V29.8345H17.9811C18.3346 29.8345 18.6201 29.5472 18.6201 29.1955V21.782L18.6219 21.7856ZM17.344 28.5617H16.2071V22.2732C16.2071 21.9197 15.9198 21.6342 15.5681 21.6342C15.2146 21.6342 14.9291 21.9215 14.9291 22.2732V30.8113C14.9291 30.8304 14.9309 30.8496 14.9326 30.8687L15.7283 39.5672H14.9657L13.6042 32.7264C13.5171 32.2877 13.1428 31.9795 12.6953 31.9795H12.6936C12.2461 31.9795 11.8718 32.2859 11.783 32.7247L10.4093 39.5673H9.6537L10.5277 30.8759C10.5294 30.855 10.5312 30.8324 10.5312 30.8115V22.2734C10.5312 21.92 10.2439 21.6344 9.89221 21.6344C9.53877 21.6344 9.25324 21.9217 9.25324 22.2734V28.562H8.02926V21.7876C8.02926 20.8718 8.77445 20.1266 9.69026 20.1266H15.6882C16.604 20.1266 17.3492 20.8718 17.3492 21.7876V28.562L17.344 28.5617Z" fill="white"/>
</svg>
