<svg width="56" height="62" viewBox="0 0 56 62" fill="none" xmlns="http://www.w3.org/2000/svg">
<path d="M43.6116 21.2911C42.3629 16.4836 39.1787 13.3618 34.7458 13.3618C32.5606 13.3618 30.2505 14.1735 28.0029 15.6719C25.7552 14.1735 23.3827 13.3618 21.1975 13.3618C16.7022 13.3618 13.2059 16.4836 12.3318 21.3535C11.0206 28.1589 15.1413 37.1495 27.1912 42.0195C27.441 42.1443 27.7531 42.2068 28.0653 42.2068C28.3775 42.2068 28.6272 42.1443 28.877 42.0195C40.8644 37.0247 44.8602 28.034 43.6116 21.2911ZM28.0029 39.5845C17.3266 35.2765 13.6429 27.5346 14.7667 21.7905C15.4535 18.1069 17.9509 15.7968 21.1975 15.7968C23.0705 15.7968 25.1933 16.6084 27.2537 18.1693L28.0029 18.7312L28.7521 18.1693C30.8124 16.6709 32.8728 15.8592 34.7458 15.8592C37.9924 15.8592 40.4898 18.1069 41.1766 21.7905C42.3629 27.4721 38.6792 35.2141 28.0029 39.5845Z" fill="white" stroke="#CE0135" stroke-width="0.25"/>
<path d="M23.3174 48.1378L16.6369 39.272C15.5131 37.7736 13.3903 37.399 11.8294 38.398C10.2685 39.3969 9.70663 41.5197 10.6431 43.143L13.0157 47.3886L11.767 47.5759L7.64628 42.2065L7.45898 32.4666C7.45898 30.4687 5.77324 29.0327 3.77533 29.0327C1.83985 29.0327 0.216553 30.5312 0.216553 32.4666V45.5155C0.216553 46.5769 0.653596 47.5759 1.34038 48.3251L12.3913 60.9994L24.5661 60.8745L24.2539 50.4479C24.1915 49.5738 23.8793 48.7622 23.3174 48.1378ZM13.5151 58.502L3.21342 46.7018L3.15098 46.6394C2.83881 46.3272 2.71394 45.8902 2.71394 45.5155V32.5291C2.71394 31.9672 3.21342 31.5925 3.83776 31.5925C4.46211 31.5925 4.96159 31.9672 4.96159 32.5915L5.14889 43.2679L10.7056 50.3855L16.949 49.3865L12.8284 42.0192C12.5786 41.5197 12.7035 40.8954 13.203 40.5832C13.7024 40.271 14.3268 40.3959 14.639 40.8329L21.3819 49.6987C21.6317 49.9484 21.7565 50.323 21.7565 50.6352L22.0063 58.4396L13.5151 58.502Z" fill="white" stroke="#CE0135" stroke-width="0.25"/>
<path d="M55.7835 32.5296C55.7835 30.5941 54.2227 29.0957 52.2248 29.0957H52.1623C50.1644 29.0957 48.5411 30.5317 48.5411 32.5296C48.4787 35.6514 48.4163 40.8335 48.3538 42.3319L44.2331 47.6389L42.9844 47.4516L45.357 43.206C46.2935 41.5827 45.7316 39.4599 44.1707 38.4609C42.6098 37.462 40.487 37.8366 39.3632 39.335L32.6827 48.0759C32.1208 48.7627 31.8086 49.5744 31.7462 50.4485L31.3716 60.8127L43.6088 61L54.6597 48.3881C55.4089 47.6389 55.7835 46.6399 55.7835 45.5785V32.5296ZM52.7867 46.6399L42.4225 58.5026L33.9938 58.4401L34.2436 50.6358C34.2436 50.2612 34.3684 49.949 34.6182 49.6368L41.2987 40.771C41.6109 40.334 42.2977 40.2091 42.7347 40.5213C43.2342 40.8335 43.359 41.4578 43.1093 41.9573L38.9886 49.3246L45.2321 50.3236L50.7888 43.1436V42.7065C50.7888 42.7065 50.9136 36.2133 50.9761 32.5296C50.9761 31.9053 51.4756 31.5307 52.0999 31.5307H52.1623C52.7242 31.5307 53.2237 31.8428 53.2237 32.4672V45.5161C53.2862 46.0156 53.0989 46.3278 52.7867 46.6399Z" fill="white" stroke="#CE0135" stroke-width="0.25"/>
<path d="M29.2489 1H26.7515V8.4922H29.2489V1Z" fill="white" stroke="#CE0135" stroke-width="0.25"/>
<path d="M45.6 4.38143L43.4045 3.19092L39.7735 9.88708L41.969 11.0776L45.6 4.38143Z" fill="white" stroke="#CE0135" stroke-width="0.25"/>
<path d="M16.2746 9.86923L12.6428 3.17383L10.4476 4.36459L14.0794 11.06L16.2746 9.86923Z" fill="white" stroke="#CE0135" stroke-width="0.25"/>
</svg>
