<svg width="33" height="23" viewBox="0 0 33 23" fill="none" xmlns="http://www.w3.org/2000/svg">
<path fill-rule="evenodd" clip-rule="evenodd" d="M23.2817 10.7086C23.0568 10.8032 22.8386 10.9101 22.626 11.0303L20.2515 9.65882C19.5101 9.23023 19.0537 8.44095 19.0514 7.58488V4.27526C19.0514 3.59842 18.7832 2.94941 18.3045 2.47072C17.8258 1.99204 17.1768 1.72375 16.4999 1.72375C15.0906 1.72375 13.9484 2.86592 13.9484 4.27526C13.9484 5.32058 13.9484 6.58854 13.9484 7.58711C13.9484 8.43984 13.4931 9.22911 12.7539 9.65548L10.3739 11.0303C10.1612 10.9101 9.94305 10.8032 9.71818 10.7086C11.3435 9.83248 12.4489 8.11366 12.4489 6.13991C12.4489 3.27559 10.1245 0.951172 7.26129 0.951172C4.39697 0.951172 2.07254 3.27559 2.07254 6.13991C2.07254 8.11366 3.17798 9.83248 4.80329 10.7086C4.05186 11.0247 3.36056 11.4856 2.77277 12.0723C1.58274 13.2623 0.914795 14.8765 0.914795 16.5586C0.914795 19.0901 0.914795 21.4924 0.914795 21.4924C0.914795 21.7996 1.16416 22.049 1.47141 22.049H13.0501C13.3573 22.049 13.6067 21.7996 13.6067 21.4924V16.5586C13.6067 16.0799 13.5532 15.6068 13.4475 15.147L15.3834 14.0304C15.7841 13.7989 16.1582 13.5328 16.5011 13.2367C16.8473 13.5351 17.2247 13.8034 17.6288 14.0371L19.5524 15.1481C19.4467 15.6068 19.3932 16.0799 19.3932 16.5586V21.4924C19.3932 21.7996 19.6426 22.049 19.9498 22.049H31.5285C31.8357 22.049 32.0851 21.7996 32.0851 21.4924C32.0851 21.4924 32.0851 19.0901 32.0851 16.5586C32.0851 14.8765 31.4171 13.2623 30.2271 12.0723C29.6393 11.4856 28.948 11.0247 28.1966 10.7086C29.8219 9.83248 30.9273 8.11366 30.9273 6.13991C30.9273 3.27559 28.6029 0.951172 25.7386 0.951172C22.8754 0.951172 20.551 3.27559 20.551 6.13991C20.551 8.11366 21.6564 9.83248 23.2817 10.7086ZM17.9382 4.27526V7.67616C17.9382 9.90038 16.7526 11.9543 14.8268 13.0664C13.6056 13.7711 12.5224 14.3967 12.5224 14.3967C12.2986 14.5258 12.1929 14.793 12.2686 15.0401C12.4166 15.5277 12.4934 16.0398 12.4934 16.5586V20.9358H2.02802V16.5586C2.02802 15.1715 2.57907 13.8412 3.55983 12.8605C4.53278 11.8875 5.84972 11.3364 7.22455 11.3275C7.2368 11.3275 7.27575 11.3275 7.28355 11.3275C8.27766 11.332 9.24283 11.6192 10.07 12.1446C10.2447 12.256 10.4674 12.2604 10.6466 12.1569L13.3105 10.6195C14.3937 9.9939 15.0616 8.83837 15.0616 7.58711V4.27526C15.0616 3.48042 15.7051 2.83697 16.4999 2.83697C16.8818 2.83697 17.248 2.98837 17.5174 3.25777C17.7868 3.52829 17.9382 3.89342 17.9382 4.27526ZM18.7353 9.80799C18.4403 10.7787 17.9482 11.6771 17.2903 12.4463C17.5664 12.679 17.8659 12.8883 18.1854 13.0731C19.401 13.7755 20.4775 14.3967 20.4775 14.3967C20.7013 14.5258 20.807 14.793 20.7313 15.0401C20.5832 15.5277 20.5064 16.0398 20.5064 16.5586V20.9358H30.9719V16.5586C30.9719 15.1715 30.4208 13.8412 29.4401 12.8605C28.4671 11.8875 27.1502 11.3364 25.7753 11.3275C25.7631 11.3275 25.7119 11.3275 25.6985 11.3275C24.71 11.3353 23.7515 11.6225 22.9299 12.1446C22.7552 12.256 22.5325 12.2604 22.3533 12.1569C22.3533 12.1569 20.8816 11.3075 19.6949 10.6229C19.322 10.408 18.9991 10.1308 18.7353 9.80799ZM7.26129 2.0644C9.51001 2.0644 11.3357 3.89009 11.3357 6.13991C11.3357 8.38195 9.52114 10.2032 7.28022 10.2143C7.27354 10.2143 7.24348 10.2143 7.23457 10.2143C4.99699 10.1998 3.18577 8.37972 3.18577 6.13991C3.18577 3.89009 5.01147 2.0644 7.26129 2.0644ZM25.7386 2.0644C27.9884 2.0644 29.8141 3.89009 29.8141 6.13991C29.8141 8.37638 28.0073 10.1954 25.7742 10.2143C25.7631 10.2143 25.7141 10.2143 25.7019 10.2143C23.4698 10.1943 21.6642 8.37638 21.6642 6.13991C21.6642 3.89009 23.4899 2.0644 25.7386 2.0644Z" fill="#666666" stroke="#FDF7F3" stroke-width="0.139153"/>
</svg>
