<svg width="52" height="52" viewBox="0 0 52 52" fill="none" xmlns="http://www.w3.org/2000/svg">
<rect width="52" height="52" rx="26" fill="#CF0337"/>
<path d="M38.9935 23.506H29.8992C29.7704 22.6688 29.0513 22.0249 28.178 22.0249H26.1495V19.8891H31.9812C32.1274 19.8891 32.2495 19.767 32.2495 19.6208V11.2683C32.2495 11.1221 32.1274 11 31.9812 11H19.7863C19.64 11 19.518 11.1221 19.518 11.2683V19.6222C19.518 19.7684 19.64 19.8905 19.7863 19.8905H25.6141V22.0263H23.5897C22.7163 22.0263 21.9973 22.6702 21.8685 23.5073L12.9995 23.506C12.4562 23.506 12.0161 23.946 12.0161 24.4894V25.9101C12.0161 26.4534 12.4561 26.8935 12.9995 26.8935H13.1283V40.7317C13.1283 40.8779 13.2504 41 13.3966 41H15.5579C15.7041 41 15.8262 40.8779 15.8262 40.7317V38.3772H24.7302C24.8764 38.3772 24.9985 38.2551 24.9985 38.1089V35.3466H36.1778V40.7304C36.1778 40.8766 36.2999 40.9987 36.4462 40.9987H38.6034C38.7496 40.9987 38.8717 40.8766 38.8717 40.7304V26.8922H39.0005C39.5438 26.8922 39.9838 26.4521 39.9838 25.9088V24.4881C39.9838 23.9448 39.5438 23.5047 39.0005 23.5047L38.9935 23.506ZM20.0545 19.3524V11.5364H31.7139V19.3538L20.0545 19.3524ZM23.5922 22.5614H28.1816C28.7572 22.5614 29.2374 22.9653 29.3622 23.5059H22.4144C22.5365 22.9653 23.0195 22.5614 23.595 22.5614H23.5922ZM15.2851 38.11V40.4645H13.6605V26.8944H15.2851V38.11ZM24.4574 30.8548V37.8418H15.8216V26.8946H24.4574V30.8548ZM36.1745 34.815H24.9952V31.1272H36.1745V34.815ZM36.1745 30.5866H24.9952V26.8987H36.1745V30.5866ZM38.3317 40.4633H36.7111V26.8932H38.3317V40.4633ZM39.4399 25.9141C39.4399 26.1609 39.24 26.3608 38.9931 26.3608H12.9988C12.752 26.3608 12.5521 26.161 12.5521 25.9141V24.4934C12.5521 24.2465 12.752 24.0466 12.9988 24.0466H38.9969C39.2438 24.0466 39.4437 24.2465 39.4437 24.4934V25.9141H39.4399Z" fill="white" stroke="white" stroke-width="0.5"/>
<path d="M29.7849 29.0373H31.38C31.5263 29.0373 31.6483 28.9152 31.6483 28.769V27.9279C31.6483 27.7816 31.5263 27.6595 31.38 27.6595C31.2338 27.6595 31.1117 27.7816 31.1117 27.9279V28.5007H30.0532V27.9279C30.0532 27.7816 29.9311 27.6595 29.7849 27.6595C29.6387 27.6595 29.5166 27.7816 29.5166 27.9279V28.769C29.5166 28.9152 29.6387 29.0373 29.7849 29.0373Z" fill="white" stroke="white" stroke-width="0.5"/>
<path d="M21.9993 33.1158C21.853 33.1158 21.731 33.2379 21.731 33.3842C21.731 33.5304 21.853 33.6525 21.9993 33.6525H22.8404C22.9867 33.6525 23.1087 33.5304 23.1087 33.3842V31.3597C23.1087 31.2135 22.9867 31.0914 22.8404 31.0914H21.9993C21.853 31.0914 21.731 31.2135 21.731 31.3597C21.731 31.506 21.853 31.6281 21.9993 31.6281H22.5721V33.1158H21.9993Z" fill="white" stroke="white" stroke-width="0.5"/>
<path d="M29.7849 33.1115H31.38C31.5263 33.1115 31.6483 32.9895 31.6483 32.8432V32.0021C31.6483 31.8558 31.5263 31.7338 31.38 31.7338C31.2338 31.7338 31.1117 31.8558 31.1117 32.0021V32.5749H30.0532V32.0021C30.0532 31.8558 29.9311 31.7338 29.7849 31.7338C29.6387 31.7338 29.5166 31.8558 29.5166 32.0021V32.8432C29.5166 32.9895 29.6387 33.1115 29.7849 33.1115Z" fill="white" stroke="white" stroke-width="0.5"/>
</svg>
