<svg width="180" height="40" viewBox="0 0 180 40" fill="none" xmlns="http://www.w3.org/2000/svg">
  <!-- Logo Text -->
  <path d="M12.5 8H25V12H17.5V18H23.5V22H17.5V28H25V32H12.5V8Z" fill="#DB2777"/>
  <path d="M27 8H31.5L37 18.5L42.5 8H47V32H42.5V15L37 25.5H36.5L31 15V32H27V8Z" fill="#DB2777"/>
  <path d="M50 8H63.5V12H54.5V18H62V22H54.5V28H63.5V32H50V8Z" fill="#DB2777"/>
  <path d="M66 8H70.5V28H79V32H66V8Z" fill="#DB2777"/>
  <path d="M81 8H85.5V18H93.5V8H98V32H93.5V22H85.5V32H81V8Z" fill="#DB2777"/>
  <path d="M101 20C101 13.5 106 7.5 113 7.5C118 7.5 121 9.5 123 12L120 15.5C118.5 13.5 116 12 113.5 12C109 12 105.5 15.5 105.5 20C105.5 24.5 109 28 113.5 28C116 28 118.5 26.5 120 24.5L123 27.5C121 30.5 118 32.5 113 32.5C106 32.5 101 26.5 101 20Z" fill="#DB2777"/>
  <path d="M126 8H139.5V12H130.5V18H138V22H130.5V28H139.5V32H126V8Z" fill="#DB2777"/>
  
  <!-- Heart Icon -->
  <path d="M155 10C151.5 10 149 12.5 147.5 15C146 12.5 143.5 10 140 10C135.5 10 132 13.5 132 18C132 26 147.5 32 147.5 32C147.5 32 163 26 163 18C163 13.5 159.5 10 155 10Z" fill="#DB2777"/>
</svg>