<svg width="52" height="52" viewBox="0 0 52 52" fill="none" xmlns="http://www.w3.org/2000/svg">
<rect width="52" height="52" rx="26" fill="#CF0337"/>
<path fill-rule="evenodd" clip-rule="evenodd" d="M31.2199 37.9998H11.7512C11.1821 37.9998 11.1821 37.1353 11.7512 37.1353H18.0243C17.4581 36.036 16.5965 36.4798 16.3804 35.9885C16.0433 35.2249 15.1947 34.833 14.3994 35.0621C13.7582 35.2465 13.8447 34.0564 12.4818 34.0564C12.159 34.0564 11.3191 34.4483 11.3191 33.7553V26.5675C11.3191 26.3284 11.5122 26.1353 11.7513 26.1353H31.22C31.4592 26.1353 31.6523 26.3284 31.6523 26.5675V37.5676C31.6523 37.8067 31.4591 37.9998 31.2199 37.9998ZM18.9548 37.1353H30.7877V26.9999H12.1835V33.2095C13.0609 33.1058 13.9297 33.4731 14.4714 34.1633C15.5188 34.0019 16.5489 34.5047 17.0633 35.4225C17.958 35.6083 18.6825 36.2695 18.9548 37.1353Z" fill="white" stroke="white" stroke-width="0.25"/>
<path fill-rule="evenodd" clip-rule="evenodd" d="M33.1346 26.9982H9.8437C9.46045 26.9982 9.26596 26.5329 9.53826 26.2606L21.1808 14.6181C21.3493 14.4495 21.6231 14.4495 21.7916 14.6181L33.3954 26.2204C33.7542 26.533 33.502 26.9984 33.1361 26.9984L33.1346 26.9982ZM10.8868 26.1338H32.086L21.4866 15.5343L10.8868 26.1338Z" fill="white" stroke="white" stroke-width="0.25"/>
<path fill-rule="evenodd" clip-rule="evenodd" d="M27.9349 24.8474C27.8239 24.8474 27.7144 24.8056 27.6294 24.7206L21.4847 18.5759L15.34 24.7206C14.9381 25.1226 14.3272 24.5117 14.7292 24.1097L21.1793 17.6596C21.3478 17.4911 21.6216 17.4911 21.7901 17.6596L28.2402 24.1097C28.5125 24.382 28.3167 24.8474 27.9349 24.8474Z" fill="white" stroke="white" stroke-width="0.25"/>
<path fill-rule="evenodd" clip-rule="evenodd" d="M21.3101 38H14.86C14.2909 38 14.2909 37.1355 14.86 37.1355H18.0224C17.4562 36.0362 16.5946 36.48 16.3785 35.9887C15.7489 34.5609 14.4277 35.3821 14.4277 34.5652V32.7657C14.4277 31.2818 15.6351 30.0744 17.1176 30.0744H19.0511C20.5351 30.0744 21.741 31.2817 21.741 32.7657V37.5664C21.741 37.8056 21.5479 37.9987 21.3087 37.9987L21.3101 38ZM18.953 37.1355H20.8779V32.7671C20.8779 31.76 20.0581 30.9402 19.051 30.9402H17.1175C16.1105 30.9402 15.2907 31.76 15.2907 32.7671V34.1718C16.0341 34.3015 16.6868 34.7597 17.0599 35.4238C17.9546 35.6097 18.6793 36.271 18.9516 37.1354L18.953 37.1355Z" fill="white" stroke="white" stroke-width="0.25"/>
<path fill-rule="evenodd" clip-rule="evenodd" d="M29.0211 34.3693H23.5089C23.2697 34.3693 23.0767 34.1748 23.0767 33.9371V30.5066C23.0767 30.2675 23.2697 30.0744 23.5089 30.0744H29.0211C29.2602 30.0744 29.4533 30.2675 29.4533 30.5066V33.9371C29.4533 34.1762 29.2602 34.3693 29.0211 34.3693ZM23.9412 33.5048H28.5892V30.9389H23.9412V33.5048Z" fill="white" stroke="white" stroke-width="0.25"/>
<path fill-rule="evenodd" clip-rule="evenodd" d="M31.2193 36.0621H21.3099C20.7408 36.0621 20.7408 35.1976 21.3099 35.1976H31.2193C31.7884 35.1976 31.7884 36.0621 31.2193 36.0621Z" fill="white" stroke="white" stroke-width="0.25"/>
<path fill-rule="evenodd" clip-rule="evenodd" d="M43.8217 37.9999H11.2952C10.7261 37.9999 10.7261 37.1354 11.2952 37.1354H43.8217C44.3908 37.1354 44.3908 37.9999 43.8217 37.9999Z" fill="white" stroke="white" stroke-width="0.25"/>
<path fill-rule="evenodd" clip-rule="evenodd" d="M36.7624 29.9089C34.5307 29.9089 32.4172 29.2893 30.9633 28.2073C30.6766 27.9941 30.789 27.1902 30.789 26.5678C30.789 26.003 31.5166 26.1355 32.0871 26.1355L29.6479 23.6978C29.1263 23.1762 30.557 21.9761 30.9604 21.6764C30.387 20.4863 30.7097 19.2142 31.7067 18.246C31.5064 15.9177 33.8722 14 36.7638 14C39.6553 14 42.0211 15.9176 41.8208 18.246C42.8163 19.2142 43.1405 20.4863 42.5671 21.6764C46.8474 24.859 43.3422 29.9087 36.7639 29.9087L36.7624 29.9089ZM31.6523 27.6383C35.809 30.4967 43.5729 28.6871 43.5729 24.9412C43.5729 23.9183 42.9289 22.9328 41.759 22.1678C41.2043 21.8047 41.9809 21.4056 41.9809 20.4691C41.9809 19.1206 40.8456 18.8929 40.9363 18.3426C41.2461 16.4595 39.2233 14.8646 36.7626 14.8646C34.2975 14.8646 32.2762 16.4638 32.589 18.3426C32.6797 18.8915 31.543 19.1206 31.543 20.4691C31.543 21.4042 32.321 21.8047 31.7649 22.1678C31.2419 22.5107 30.8125 22.9083 30.5056 23.3333L33.4347 26.2624C33.7055 26.5347 33.5125 27 33.1292 27H31.6525V27.6397L31.6523 27.6383Z" fill="white" stroke="white" stroke-width="0.25"/>
<path fill-rule="evenodd" clip-rule="evenodd" d="M36.7623 34.0584C36.5231 34.0584 36.3301 33.8639 36.3301 33.6262V21.9545C36.3301 21.3854 37.1945 21.3854 37.1945 21.9545V33.6262C37.1945 33.8654 37.0015 34.0584 36.7623 34.0584Z" fill="white" stroke="white" stroke-width="0.25"/>
<path fill-rule="evenodd" clip-rule="evenodd" d="M36.7623 27.8025C36.6183 27.8025 36.4785 27.7304 36.3964 27.6008L33.6791 23.2858C33.3766 22.8046 34.107 22.345 34.411 22.8248L37.1283 27.1397C37.3113 27.4293 37.098 27.8025 36.7638 27.8025L36.7623 27.8025Z" fill="white" stroke="white" stroke-width="0.25"/>
<path fill-rule="evenodd" clip-rule="evenodd" d="M36.7609 27.8026C36.4252 27.8026 36.2134 27.4294 36.395 27.1398L39.1122 22.8249C39.4162 22.3436 40.1467 22.8047 39.8441 23.2859L37.1269 27.6008C37.0448 27.7305 36.905 27.8026 36.7609 27.8026Z" fill="white" stroke="white" stroke-width="0.25"/>
<path fill-rule="evenodd" clip-rule="evenodd" d="M42.8059 38H32.1862C31.1373 38 32.009 35.1646 34.2177 35.1142C34.7162 33.0827 37.3556 32.5021 38.658 34.1633C39.7054 34.0019 40.7356 34.5048 41.2499 35.4225C42.96 35.7784 43.7971 38 42.8074 38L42.8059 38ZM32.6934 37.1355H42.211C41.6448 36.0362 40.7832 36.48 40.5671 35.9887C40.2315 35.2251 39.38 34.8318 38.5861 35.0623C37.9421 35.2496 38.0444 34.0566 36.6685 34.0566C35.8012 34.0566 35.0736 34.7338 35.0131 35.5982C34.9771 36.1068 34.4209 35.9771 34.2769 35.9771C33.532 35.9771 32.9051 36.4598 32.6934 37.1355Z" fill="white" stroke="white" stroke-width="0.25"/>
<path fill-rule="evenodd" clip-rule="evenodd" d="M18.6187 37.9999H7.99749C6.94861 37.9999 7.82028 35.1645 10.0289 35.114C10.5289 33.0812 13.1669 32.502 14.4693 34.1632C15.5167 34.0018 16.5468 34.5046 17.0612 35.4224C18.7713 35.7783 19.6085 37.9999 18.6187 37.9999ZM8.50463 37.1354H18.0223C17.4561 36.0346 16.5945 36.4799 16.3784 35.9885C16.0413 35.225 15.1927 34.8331 14.3974 35.0622C13.7563 35.2466 13.8427 34.0565 12.4798 34.0565C11.6124 34.0565 10.8849 34.7336 10.8244 35.5981C10.7883 36.1067 10.2322 35.977 10.0881 35.977C9.34328 35.977 8.71641 36.4597 8.50463 37.1354Z" fill="white" stroke="white" stroke-width="0.25"/>
<path fill-rule="evenodd" clip-rule="evenodd" d="M31.2195 28.8252H11.7508C11.1817 28.8252 11.1817 27.9608 11.7508 27.9608H31.2195C31.7886 27.9608 31.7886 28.8252 31.2195 28.8252Z" fill="white" stroke="white" stroke-width="0.25"/>
<path fill-rule="evenodd" clip-rule="evenodd" d="M12.9493 23.8923C12.7116 23.8923 12.5171 23.6992 12.5171 23.46V17.4131C12.5171 17.1739 12.7102 16.9808 12.9493 16.9808H15.7761C16.0152 16.9808 16.2083 17.1739 16.2083 17.4131V20.6346C16.2083 20.7498 16.1622 20.8593 16.0815 20.94L13.2548 23.7668C13.1726 23.8503 13.0617 23.8936 12.9493 23.8936L12.9493 23.8923ZM13.3816 17.8442V22.417L15.3438 20.4547V17.844L13.3816 17.8442Z" fill="white" stroke="white" stroke-width="0.25"/>
</svg>
