<svg width="52" height="52" viewBox="0 0 52 52" fill="none" xmlns="http://www.w3.org/2000/svg">
<rect width="52" height="52" rx="26" fill="#CF0337"/>
<mask id="path-2-outside-1_8_1946" maskUnits="userSpaceOnUse" x="13" y="12.9996" width="26" height="26" fill="black">
<rect fill="white" x="13" y="12.9996" width="26" height="26"/>
<path d="M36.4024 26.296C35.7438 25.6786 34.7697 25.1755 33.6916 25.187C34.1421 24.5867 34.3856 23.7201 34.4873 22.515C34.4931 22.4361 34.4702 22.3595 34.4176 22.2989C34.365 22.2372 34.2941 22.2029 34.2152 22.1994C33.4069 22.1468 32.7163 22.2166 32.1492 22.4041L32.1504 18.103C32.1469 17.4536 31.6199 16.9265 30.9705 16.9265H28.0493V16.6304C28.0493 16.1479 27.6571 15.7557 27.1746 15.7557H25.1029C24.96 14.7633 24.1047 13.9996 23.0746 13.9996C22.0445 13.9996 21.1893 14.7633 21.0463 15.7557H18.9746C18.4899 15.7557 18.0977 16.1479 18.0977 16.6304V16.9265H15.1765C14.5271 16.9265 14 17.4536 14 18.103V36.8262C14 37.4734 14.5271 38.0004 15.1765 38.0004H28.9272C28.9478 38.0004 28.9683 37.9913 28.9855 37.989C29.0324 37.9924 29.0792 38.0004 29.1227 38.0004C29.4623 38.0004 29.7755 37.9044 30.0477 37.7169C30.3575 37.925 30.6479 37.9924 30.8697 37.9981H30.9166C31.2356 37.9981 31.5523 37.8895 31.8587 37.6849C32.1434 37.8918 32.4692 38.0004 32.826 38.0004C33.0546 38.0004 33.2948 37.9593 33.5406 37.8747C34.182 37.6517 35.004 36.8537 35.985 35.4954C36.8162 34.3452 37.7915 32.8177 37.9573 31.1873C38.1642 29.167 37.6143 27.4314 36.4024 26.296ZM33.7007 22.7632C33.7567 22.7632 33.815 22.7632 33.8733 22.7666C33.639 24.9207 32.9107 25.6501 30.935 25.705C30.9201 25.6147 30.903 25.5266 30.8824 25.4351C30.8321 24.9492 30.8527 24.1912 31.318 23.615C31.7776 23.0501 32.5768 22.7632 33.7007 22.7632ZM18.6829 16.6304C18.6829 16.4692 18.8144 16.3411 18.9722 16.3411H21.3172C21.4784 16.3411 21.6099 16.2097 21.6099 16.0485C21.6099 15.2401 22.265 14.585 23.0733 14.585C23.8816 14.585 24.5368 15.2401 24.5368 16.0485C24.5368 16.2097 24.6683 16.3411 24.8295 16.3411H27.1744C27.3357 16.3411 27.4637 16.4726 27.4637 16.6304V18.39C27.4637 18.5512 27.3322 18.6793 27.1744 18.6793H18.9723C18.8145 18.6827 18.6831 18.5512 18.6831 18.3934L18.6829 16.6304ZM14.5852 36.8239V18.1029C14.5852 17.7748 14.8482 17.5119 15.1763 17.5119H18.0975V18.3934C18.0975 18.8758 18.4897 19.268 18.9722 19.268H27.1711C27.6536 19.268 28.0458 18.8759 28.0458 18.3934V17.5119H30.967C31.2985 17.5119 31.5615 17.7748 31.5615 18.1029V22.4875C31.5615 22.5435 31.5821 22.5927 31.6084 22.6373C31.3157 22.8008 31.0607 22.9997 30.8618 23.2489C30.5725 23.6091 30.417 24.0127 30.3404 24.4026C30.1564 24.2242 29.9185 24.0744 29.6087 23.9669C29.4566 23.9143 29.2897 23.9932 29.2371 24.1453C29.1845 24.2974 29.2634 24.4643 29.4155 24.5169C29.9391 24.7009 30.177 25.0257 30.2993 25.5058C30.3164 25.6671 30.3404 25.802 30.3576 25.9015C28.5168 24.5878 26.6199 25.2863 25.5454 26.2936C24.3369 27.4289 23.7836 29.1645 23.9916 31.1813C24.1586 32.8117 25.1327 34.3427 25.9639 35.4894C26.5962 36.3641 27.1609 37.0032 27.656 37.4091H15.1765C14.8483 37.4148 14.5852 37.152 14.5852 36.8239ZM37.3775 31.1254C37.2254 32.6186 36.3005 34.0614 35.5127 35.1535C34.629 36.3768 33.8618 37.1463 33.353 37.3224C33.0694 37.4219 32.683 37.4779 32.332 37.2961C32.3823 37.2435 32.4349 37.1875 32.4841 37.1292C32.5892 37.0057 32.5721 36.8216 32.4486 36.7164C32.3251 36.6112 32.141 36.6284 32.0359 36.7519C31.7729 37.0617 31.3544 37.4253 30.8971 37.4161C30.5541 37.4047 30.2214 37.1852 29.9104 36.7667C29.8144 36.6375 29.6326 36.6089 29.5011 36.7049C29.3719 36.801 29.3433 36.9828 29.4394 37.1143C29.492 37.1874 29.5445 37.2492 29.6006 37.3109C29.2576 37.4778 28.8837 37.4195 28.6059 37.3223C28.0971 37.1463 27.3265 36.3768 26.4461 35.1534C25.6584 34.0615 24.7334 32.6186 24.5814 31.1254C24.3939 29.2926 24.8798 27.7296 25.9545 26.7236C26.8417 25.8924 28.2549 25.3562 29.6954 26.1702C29.4233 26.3074 29.1603 26.4892 28.9111 26.7236C28.7945 26.8345 28.7876 27.0197 28.8962 27.1363C29.0071 27.253 29.1923 27.2598 29.309 27.1512C30.2979 26.2228 31.5213 26.2297 32.6635 27.1626C32.7195 27.2061 32.7836 27.2301 32.8476 27.2301C32.9322 27.2301 33.0168 27.1924 33.0728 27.1215C33.1757 26.9957 33.1574 26.8116 33.0317 26.7087C32.7687 26.4926 32.4989 26.32 32.2268 26.1874C33.6788 25.3447 35.1068 25.8832 36.0019 26.7202C37.0755 27.7297 37.565 29.2926 37.3775 31.1254ZM19.2683 22.4875C19.2683 22.3263 19.3998 22.1948 19.561 22.1948H28.3418C28.503 22.1948 28.6345 22.3263 28.6345 22.4875C28.6345 22.6487 28.503 22.7802 28.3418 22.7802H19.561C19.3998 22.7802 19.2683 22.6487 19.2683 22.4875ZM22.1952 27.756C22.1952 27.9172 22.0638 28.0486 21.9026 28.0486H19.561C19.3998 28.0486 19.2683 27.9172 19.2683 27.756C19.2683 27.5947 19.3998 27.4633 19.561 27.4633H21.9026C22.0638 27.4633 22.1952 27.5947 22.1952 27.756ZM22.1952 33.0244C22.1952 33.1856 22.0638 33.3171 21.9026 33.3171H19.561C19.3998 33.3171 19.2683 33.1856 19.2683 33.0244C19.2683 32.8632 19.3998 32.7317 19.561 32.7317H21.9026C22.0638 32.7317 22.1952 32.8632 22.1952 33.0244ZM18.0975 22.4875C18.0975 22.6487 17.9661 22.7802 17.8049 22.7802H17.2195C17.0583 22.7802 16.9268 22.6487 16.9268 22.4875C16.9268 22.3263 17.0583 22.1948 17.2195 22.1948H17.8049C17.9661 22.1948 18.0975 22.3263 18.0975 22.4875ZM18.0975 27.756C18.0975 27.9172 17.9661 28.0486 17.8049 28.0486H17.2195C17.0583 28.0486 16.9268 27.9172 16.9268 27.756C16.9268 27.5947 17.0583 27.4633 17.2195 27.4633H17.8049C17.9661 27.4633 18.0975 27.5947 18.0975 27.756ZM18.0975 33.0244C18.0975 33.1856 17.9661 33.3171 17.8049 33.3171H17.2195C17.0583 33.3171 16.9268 33.1856 16.9268 33.0244C16.9268 32.8632 17.0583 32.7317 17.2195 32.7317H17.8049C17.9661 32.7317 18.0975 32.8632 18.0975 33.0244Z"/>
</mask>
<path d="M36.4024 26.296C35.7438 25.6786 34.7697 25.1755 33.6916 25.187C34.1421 24.5867 34.3856 23.7201 34.4873 22.515C34.4931 22.4361 34.4702 22.3595 34.4176 22.2989C34.365 22.2372 34.2941 22.2029 34.2152 22.1994C33.4069 22.1468 32.7163 22.2166 32.1492 22.4041L32.1504 18.103C32.1469 17.4536 31.6199 16.9265 30.9705 16.9265H28.0493V16.6304C28.0493 16.1479 27.6571 15.7557 27.1746 15.7557H25.1029C24.96 14.7633 24.1047 13.9996 23.0746 13.9996C22.0445 13.9996 21.1893 14.7633 21.0463 15.7557H18.9746C18.4899 15.7557 18.0977 16.1479 18.0977 16.6304V16.9265H15.1765C14.5271 16.9265 14 17.4536 14 18.103V36.8262C14 37.4734 14.5271 38.0004 15.1765 38.0004H28.9272C28.9478 38.0004 28.9683 37.9913 28.9855 37.989C29.0324 37.9924 29.0792 38.0004 29.1227 38.0004C29.4623 38.0004 29.7755 37.9044 30.0477 37.7169C30.3575 37.925 30.6479 37.9924 30.8697 37.9981H30.9166C31.2356 37.9981 31.5523 37.8895 31.8587 37.6849C32.1434 37.8918 32.4692 38.0004 32.826 38.0004C33.0546 38.0004 33.2948 37.9593 33.5406 37.8747C34.182 37.6517 35.004 36.8537 35.985 35.4954C36.8162 34.3452 37.7915 32.8177 37.9573 31.1873C38.1642 29.167 37.6143 27.4314 36.4024 26.296ZM33.7007 22.7632C33.7567 22.7632 33.815 22.7632 33.8733 22.7666C33.639 24.9207 32.9107 25.6501 30.935 25.705C30.9201 25.6147 30.903 25.5266 30.8824 25.4351C30.8321 24.9492 30.8527 24.1912 31.318 23.615C31.7776 23.0501 32.5768 22.7632 33.7007 22.7632ZM18.6829 16.6304C18.6829 16.4692 18.8144 16.3411 18.9722 16.3411H21.3172C21.4784 16.3411 21.6099 16.2097 21.6099 16.0485C21.6099 15.2401 22.265 14.585 23.0733 14.585C23.8816 14.585 24.5368 15.2401 24.5368 16.0485C24.5368 16.2097 24.6683 16.3411 24.8295 16.3411H27.1744C27.3357 16.3411 27.4637 16.4726 27.4637 16.6304V18.39C27.4637 18.5512 27.3322 18.6793 27.1744 18.6793H18.9723C18.8145 18.6827 18.6831 18.5512 18.6831 18.3934L18.6829 16.6304ZM14.5852 36.8239V18.1029C14.5852 17.7748 14.8482 17.5119 15.1763 17.5119H18.0975V18.3934C18.0975 18.8758 18.4897 19.268 18.9722 19.268H27.1711C27.6536 19.268 28.0458 18.8759 28.0458 18.3934V17.5119H30.967C31.2985 17.5119 31.5615 17.7748 31.5615 18.1029V22.4875C31.5615 22.5435 31.5821 22.5927 31.6084 22.6373C31.3157 22.8008 31.0607 22.9997 30.8618 23.2489C30.5725 23.6091 30.417 24.0127 30.3404 24.4026C30.1564 24.2242 29.9185 24.0744 29.6087 23.9669C29.4566 23.9143 29.2897 23.9932 29.2371 24.1453C29.1845 24.2974 29.2634 24.4643 29.4155 24.5169C29.9391 24.7009 30.177 25.0257 30.2993 25.5058C30.3164 25.6671 30.3404 25.802 30.3576 25.9015C28.5168 24.5878 26.6199 25.2863 25.5454 26.2936C24.3369 27.4289 23.7836 29.1645 23.9916 31.1813C24.1586 32.8117 25.1327 34.3427 25.9639 35.4894C26.5962 36.3641 27.1609 37.0032 27.656 37.4091H15.1765C14.8483 37.4148 14.5852 37.152 14.5852 36.8239ZM37.3775 31.1254C37.2254 32.6186 36.3005 34.0614 35.5127 35.1535C34.629 36.3768 33.8618 37.1463 33.353 37.3224C33.0694 37.4219 32.683 37.4779 32.332 37.2961C32.3823 37.2435 32.4349 37.1875 32.4841 37.1292C32.5892 37.0057 32.5721 36.8216 32.4486 36.7164C32.3251 36.6112 32.141 36.6284 32.0359 36.7519C31.7729 37.0617 31.3544 37.4253 30.8971 37.4161C30.5541 37.4047 30.2214 37.1852 29.9104 36.7667C29.8144 36.6375 29.6326 36.6089 29.5011 36.7049C29.3719 36.801 29.3433 36.9828 29.4394 37.1143C29.492 37.1874 29.5445 37.2492 29.6006 37.3109C29.2576 37.4778 28.8837 37.4195 28.6059 37.3223C28.0971 37.1463 27.3265 36.3768 26.4461 35.1534C25.6584 34.0615 24.7334 32.6186 24.5814 31.1254C24.3939 29.2926 24.8798 27.7296 25.9545 26.7236C26.8417 25.8924 28.2549 25.3562 29.6954 26.1702C29.4233 26.3074 29.1603 26.4892 28.9111 26.7236C28.7945 26.8345 28.7876 27.0197 28.8962 27.1363C29.0071 27.253 29.1923 27.2598 29.309 27.1512C30.2979 26.2228 31.5213 26.2297 32.6635 27.1626C32.7195 27.2061 32.7836 27.2301 32.8476 27.2301C32.9322 27.2301 33.0168 27.1924 33.0728 27.1215C33.1757 26.9957 33.1574 26.8116 33.0317 26.7087C32.7687 26.4926 32.4989 26.32 32.2268 26.1874C33.6788 25.3447 35.1068 25.8832 36.0019 26.7202C37.0755 27.7297 37.565 29.2926 37.3775 31.1254ZM19.2683 22.4875C19.2683 22.3263 19.3998 22.1948 19.561 22.1948H28.3418C28.503 22.1948 28.6345 22.3263 28.6345 22.4875C28.6345 22.6487 28.503 22.7802 28.3418 22.7802H19.561C19.3998 22.7802 19.2683 22.6487 19.2683 22.4875ZM22.1952 27.756C22.1952 27.9172 22.0638 28.0486 21.9026 28.0486H19.561C19.3998 28.0486 19.2683 27.9172 19.2683 27.756C19.2683 27.5947 19.3998 27.4633 19.561 27.4633H21.9026C22.0638 27.4633 22.1952 27.5947 22.1952 27.756ZM22.1952 33.0244C22.1952 33.1856 22.0638 33.3171 21.9026 33.3171H19.561C19.3998 33.3171 19.2683 33.1856 19.2683 33.0244C19.2683 32.8632 19.3998 32.7317 19.561 32.7317H21.9026C22.0638 32.7317 22.1952 32.8632 22.1952 33.0244ZM18.0975 22.4875C18.0975 22.6487 17.9661 22.7802 17.8049 22.7802H17.2195C17.0583 22.7802 16.9268 22.6487 16.9268 22.4875C16.9268 22.3263 17.0583 22.1948 17.2195 22.1948H17.8049C17.9661 22.1948 18.0975 22.3263 18.0975 22.4875ZM18.0975 27.756C18.0975 27.9172 17.9661 28.0486 17.8049 28.0486H17.2195C17.0583 28.0486 16.9268 27.9172 16.9268 27.756C16.9268 27.5947 17.0583 27.4633 17.2195 27.4633H17.8049C17.9661 27.4633 18.0975 27.5947 18.0975 27.756ZM18.0975 33.0244C18.0975 33.1856 17.9661 33.3171 17.8049 33.3171H17.2195C17.0583 33.3171 16.9268 33.1856 16.9268 33.0244C16.9268 32.8632 17.0583 32.7317 17.2195 32.7317H17.8049C17.9661 32.7317 18.0975 32.8632 18.0975 33.0244Z" fill="white"/>
<path d="M36.4024 26.296C35.7438 25.6786 34.7697 25.1755 33.6916 25.187C34.1421 24.5867 34.3856 23.7201 34.4873 22.515C34.4931 22.4361 34.4702 22.3595 34.4176 22.2989C34.365 22.2372 34.2941 22.2029 34.2152 22.1994C33.4069 22.1468 32.7163 22.2166 32.1492 22.4041L32.1504 18.103C32.1469 17.4536 31.6199 16.9265 30.9705 16.9265H28.0493V16.6304C28.0493 16.1479 27.6571 15.7557 27.1746 15.7557H25.1029C24.96 14.7633 24.1047 13.9996 23.0746 13.9996C22.0445 13.9996 21.1893 14.7633 21.0463 15.7557H18.9746C18.4899 15.7557 18.0977 16.1479 18.0977 16.6304V16.9265H15.1765C14.5271 16.9265 14 17.4536 14 18.103V36.8262C14 37.4734 14.5271 38.0004 15.1765 38.0004H28.9272C28.9478 38.0004 28.9683 37.9913 28.9855 37.989C29.0324 37.9924 29.0792 38.0004 29.1227 38.0004C29.4623 38.0004 29.7755 37.9044 30.0477 37.7169C30.3575 37.925 30.6479 37.9924 30.8697 37.9981H30.9166C31.2356 37.9981 31.5523 37.8895 31.8587 37.6849C32.1434 37.8918 32.4692 38.0004 32.826 38.0004C33.0546 38.0004 33.2948 37.9593 33.5406 37.8747C34.182 37.6517 35.004 36.8537 35.985 35.4954C36.8162 34.3452 37.7915 32.8177 37.9573 31.1873C38.1642 29.167 37.6143 27.4314 36.4024 26.296ZM33.7007 22.7632C33.7567 22.7632 33.815 22.7632 33.8733 22.7666C33.639 24.9207 32.9107 25.6501 30.935 25.705C30.9201 25.6147 30.903 25.5266 30.8824 25.4351C30.8321 24.9492 30.8527 24.1912 31.318 23.615C31.7776 23.0501 32.5768 22.7632 33.7007 22.7632ZM18.6829 16.6304C18.6829 16.4692 18.8144 16.3411 18.9722 16.3411H21.3172C21.4784 16.3411 21.6099 16.2097 21.6099 16.0485C21.6099 15.2401 22.265 14.585 23.0733 14.585C23.8816 14.585 24.5368 15.2401 24.5368 16.0485C24.5368 16.2097 24.6683 16.3411 24.8295 16.3411H27.1744C27.3357 16.3411 27.4637 16.4726 27.4637 16.6304V18.39C27.4637 18.5512 27.3322 18.6793 27.1744 18.6793H18.9723C18.8145 18.6827 18.6831 18.5512 18.6831 18.3934L18.6829 16.6304ZM14.5852 36.8239V18.1029C14.5852 17.7748 14.8482 17.5119 15.1763 17.5119H18.0975V18.3934C18.0975 18.8758 18.4897 19.268 18.9722 19.268H27.1711C27.6536 19.268 28.0458 18.8759 28.0458 18.3934V17.5119H30.967C31.2985 17.5119 31.5615 17.7748 31.5615 18.1029V22.4875C31.5615 22.5435 31.5821 22.5927 31.6084 22.6373C31.3157 22.8008 31.0607 22.9997 30.8618 23.2489C30.5725 23.6091 30.417 24.0127 30.3404 24.4026C30.1564 24.2242 29.9185 24.0744 29.6087 23.9669C29.4566 23.9143 29.2897 23.9932 29.2371 24.1453C29.1845 24.2974 29.2634 24.4643 29.4155 24.5169C29.9391 24.7009 30.177 25.0257 30.2993 25.5058C30.3164 25.6671 30.3404 25.802 30.3576 25.9015C28.5168 24.5878 26.6199 25.2863 25.5454 26.2936C24.3369 27.4289 23.7836 29.1645 23.9916 31.1813C24.1586 32.8117 25.1327 34.3427 25.9639 35.4894C26.5962 36.3641 27.1609 37.0032 27.656 37.4091H15.1765C14.8483 37.4148 14.5852 37.152 14.5852 36.8239ZM37.3775 31.1254C37.2254 32.6186 36.3005 34.0614 35.5127 35.1535C34.629 36.3768 33.8618 37.1463 33.353 37.3224C33.0694 37.4219 32.683 37.4779 32.332 37.2961C32.3823 37.2435 32.4349 37.1875 32.4841 37.1292C32.5892 37.0057 32.5721 36.8216 32.4486 36.7164C32.3251 36.6112 32.141 36.6284 32.0359 36.7519C31.7729 37.0617 31.3544 37.4253 30.8971 37.4161C30.5541 37.4047 30.2214 37.1852 29.9104 36.7667C29.8144 36.6375 29.6326 36.6089 29.5011 36.7049C29.3719 36.801 29.3433 36.9828 29.4394 37.1143C29.492 37.1874 29.5445 37.2492 29.6006 37.3109C29.2576 37.4778 28.8837 37.4195 28.6059 37.3223C28.0971 37.1463 27.3265 36.3768 26.4461 35.1534C25.6584 34.0615 24.7334 32.6186 24.5814 31.1254C24.3939 29.2926 24.8798 27.7296 25.9545 26.7236C26.8417 25.8924 28.2549 25.3562 29.6954 26.1702C29.4233 26.3074 29.1603 26.4892 28.9111 26.7236C28.7945 26.8345 28.7876 27.0197 28.8962 27.1363C29.0071 27.253 29.1923 27.2598 29.309 27.1512C30.2979 26.2228 31.5213 26.2297 32.6635 27.1626C32.7195 27.2061 32.7836 27.2301 32.8476 27.2301C32.9322 27.2301 33.0168 27.1924 33.0728 27.1215C33.1757 26.9957 33.1574 26.8116 33.0317 26.7087C32.7687 26.4926 32.4989 26.32 32.2268 26.1874C33.6788 25.3447 35.1068 25.8832 36.0019 26.7202C37.0755 27.7297 37.565 29.2926 37.3775 31.1254ZM19.2683 22.4875C19.2683 22.3263 19.3998 22.1948 19.561 22.1948H28.3418C28.503 22.1948 28.6345 22.3263 28.6345 22.4875C28.6345 22.6487 28.503 22.7802 28.3418 22.7802H19.561C19.3998 22.7802 19.2683 22.6487 19.2683 22.4875ZM22.1952 27.756C22.1952 27.9172 22.0638 28.0486 21.9026 28.0486H19.561C19.3998 28.0486 19.2683 27.9172 19.2683 27.756C19.2683 27.5947 19.3998 27.4633 19.561 27.4633H21.9026C22.0638 27.4633 22.1952 27.5947 22.1952 27.756ZM22.1952 33.0244C22.1952 33.1856 22.0638 33.3171 21.9026 33.3171H19.561C19.3998 33.3171 19.2683 33.1856 19.2683 33.0244C19.2683 32.8632 19.3998 32.7317 19.561 32.7317H21.9026C22.0638 32.7317 22.1952 32.8632 22.1952 33.0244ZM18.0975 22.4875C18.0975 22.6487 17.9661 22.7802 17.8049 22.7802H17.2195C17.0583 22.7802 16.9268 22.6487 16.9268 22.4875C16.9268 22.3263 17.0583 22.1948 17.2195 22.1948H17.8049C17.9661 22.1948 18.0975 22.3263 18.0975 22.4875ZM18.0975 27.756C18.0975 27.9172 17.9661 28.0486 17.8049 28.0486H17.2195C17.0583 28.0486 16.9268 27.9172 16.9268 27.756C16.9268 27.5947 17.0583 27.4633 17.2195 27.4633H17.8049C17.9661 27.4633 18.0975 27.5947 18.0975 27.756ZM18.0975 33.0244C18.0975 33.1856 17.9661 33.3171 17.8049 33.3171H17.2195C17.0583 33.3171 16.9268 33.1856 16.9268 33.0244C16.9268 32.8632 17.0583 32.7317 17.2195 32.7317H17.8049C17.9661 32.7317 18.0975 32.8632 18.0975 33.0244Z" stroke="white" mask="url(#path-2-outside-1_8_1946)"/>
</svg>
