<svg width="52" height="52" viewBox="0 0 52 52" fill="none" xmlns="http://www.w3.org/2000/svg">
<rect width="52" height="52" rx="26" fill="#CF0337"/>
<path d="M16.7079 20.06H16.5382C16.1708 20.06 15.8754 20.358 15.8754 20.7254C15.8754 21.0929 16.1734 21.3909 16.5409 21.3909H32.1551C32.5213 21.3909 32.8192 21.0929 32.8192 20.7254C32.8192 20.358 32.5213 20.06 32.1551 20.06H16.7079ZM16.5395 24.0486C16.1734 24.0486 15.8754 24.3466 15.8754 24.7141C15.8754 25.0815 16.1734 25.3795 16.5409 25.3795H24.6612C25.0286 25.3795 25.3266 25.0815 25.3266 24.7141C25.3266 24.3466 25.0286 24.0486 24.6612 24.0486H16.5395ZM34.9318 15.3229L35.1536 15.3295C35.4276 15.3376 35.6467 15.5634 35.6467 15.8387C35.6467 15.8387 35.6494 29.5981 35.6494 29.5995C35.6494 29.8761 35.4289 30.1006 35.155 30.11L22.1467 30.1113C21.9997 30.1193 21.8541 30.1768 21.7365 30.2837L16.7832 34.8108C16.6923 34.8949 16.5707 34.9471 16.4357 34.9471C16.1538 34.9471 15.9253 34.7186 15.9253 34.4366C15.9253 34.4353 15.9226 30.7753 15.9226 30.7753C15.9226 30.4079 15.6246 30.1099 15.2572 30.1099H13.5414C13.2675 30.1005 13.0484 29.876 13.0484 29.5994C13.0484 29.5981 13.047 15.8386 13.047 15.8386C13.047 15.5633 13.2662 15.3375 13.5401 15.3295L34.9318 15.3229ZM13.533 14.0026V14.004C12.5308 14.012 11.7224 14.8244 11.717 15.8266L11.7184 29.6114C11.7237 30.6136 12.5335 31.426 13.5343 31.4394H14.5913L14.594 34.4366C14.594 35.4522 15.4185 36.2766 16.4353 36.2766C16.9191 36.2766 17.3587 36.0896 17.6874 35.7849L22.443 31.4394H35.1629C36.1638 31.4261 36.9722 30.6136 36.9789 29.6114L36.9762 15.8266C36.9709 14.8244 36.1624 14.012 35.1602 14L13.533 14.0026ZM38.2014 19.3983V19.4009L38.2028 20.7278L38.458 20.7292C38.7333 20.7372 38.9537 20.9603 38.9537 21.2356V33.0305C38.9537 33.3071 38.7332 33.5397 38.4593 33.541C38.0812 33.5437 37.2126 33.5396 37.2126 33.5396C36.8572 33.5396 36.5512 33.8176 36.5485 34.169C36.5298 36.1587 36.5445 36.16 36.5445 36.16C36.5445 36.442 36.316 36.6705 36.034 36.6705C35.9004 36.6705 35.7775 36.6184 35.6866 36.5342L32.5852 33.7C32.4689 33.5984 32.3193 33.5396 32.1536 33.5396C32.1456 33.5396 24.8201 33.541 24.8201 33.541C24.5461 33.5329 24.327 33.3071 24.327 33.0318L24.3243 32.6657L22.9974 32.6644V33.0439C23.0028 34.0461 23.8112 34.8585 24.8134 34.8705H31.8941L34.7817 37.5083C35.1105 37.8143 35.5501 38 36.0338 38C37.0507 38 37.8752 37.1769 37.8752 36.16L37.8765 34.8705H38.4658C39.468 34.8572 40.2764 34.046 40.2831 33.0425V21.2233C40.2764 20.2211 39.468 19.4087 38.4671 19.3967L38.2014 19.3983Z" fill="white"/>
<path d="M38.2014 19.3983V19.4009L38.2028 20.7278L38.458 20.7292C38.7333 20.7372 38.9537 20.9603 38.9537 21.2356V33.0305C38.9537 33.3071 38.7332 33.5397 38.4593 33.541C38.0812 33.5437 37.2126 33.5397 37.2126 33.5397C36.8572 33.5397 36.5512 33.8176 36.5485 34.169C36.5298 36.1587 36.5445 36.16 36.5445 36.16C36.5445 36.442 36.316 36.6705 36.034 36.6705C35.9004 36.6705 35.7775 36.6184 35.6866 36.5342L32.5852 33.7C32.4689 33.5984 32.3193 33.5396 32.1536 33.5396C32.1456 33.5396 24.8201 33.541 24.8201 33.541C24.5461 33.5329 24.327 33.3071 24.327 33.0318L24.3243 32.6657L22.9974 32.6644V33.0439C23.0028 34.0461 23.8112 34.8585 24.8134 34.8705H31.8941L34.7817 37.5083C35.1105 37.8143 35.5501 38 36.0338 38C37.0507 38 37.8752 37.1769 37.8752 36.16L37.8765 34.8705H38.4658C39.468 34.8572 40.2764 34.046 40.2831 33.0425V21.2233C40.2764 20.2211 39.468 19.4087 38.4671 19.3967L38.2014 19.3983ZM38.2014 19.3983L38.2012 19.3993M16.7079 20.06H16.5382C16.1708 20.06 15.8754 20.358 15.8754 20.7254C15.8754 21.0929 16.1734 21.3909 16.5409 21.3909H32.1551C32.5213 21.3909 32.8192 21.0929 32.8192 20.7254C32.8192 20.358 32.5213 20.06 32.1551 20.06H16.7079ZM16.5395 24.0486C16.1734 24.0486 15.8754 24.3466 15.8754 24.7141C15.8754 25.0815 16.1734 25.3795 16.5409 25.3795H24.6612C25.0286 25.3795 25.3266 25.0815 25.3266 24.7141C25.3266 24.3466 25.0286 24.0486 24.6612 24.0486H16.5395ZM34.9318 15.3229L35.1536 15.3295C35.4276 15.3376 35.6467 15.5634 35.6467 15.8387C35.6467 15.8387 35.6494 29.5981 35.6494 29.5995C35.6494 29.8761 35.4289 30.1006 35.155 30.11L22.1467 30.1113C21.9997 30.1193 21.8541 30.1768 21.7365 30.2837L16.7832 34.8108C16.6923 34.8949 16.5707 34.9471 16.4357 34.9471C16.1538 34.9471 15.9253 34.7186 15.9253 34.4366C15.9253 34.4353 15.9226 30.7753 15.9226 30.7753C15.9226 30.4079 15.6246 30.1099 15.2572 30.1099H13.5414C13.2675 30.1005 13.0484 29.876 13.0484 29.5994C13.0484 29.5981 13.047 15.8386 13.047 15.8386C13.047 15.5633 13.2662 15.3375 13.5401 15.3295L34.9318 15.3229ZM13.533 14.0026V14.004C12.5308 14.012 11.7224 14.8244 11.717 15.8266L11.7184 29.6114C11.7237 30.6136 12.5335 31.426 13.5343 31.4394H14.5913L14.594 34.4366C14.594 35.4522 15.4185 36.2766 16.4353 36.2766C16.9191 36.2766 17.3587 36.0896 17.6874 35.7849L22.443 31.4394H35.1629C36.1638 31.4261 36.9722 30.6136 36.9789 29.6114L36.9762 15.8266C36.9709 14.8244 36.1624 14.012 35.1602 14L13.533 14.0026Z" stroke="white" stroke-width="0.5"/>
</svg>
