<svg width="27" height="33" viewBox="0 0 27 33" fill="none" xmlns="http://www.w3.org/2000/svg">
<path d="M2.77924 0.914795C1.51052 0.914795 0.471924 1.95096 0.471924 3.21968V29.7802C0.471924 31.0489 1.51052 32.0851 2.77924 32.0851H22.5138C23.7825 32.0851 24.8187 31.0489 24.8187 29.7802V27.1819H25.0269C26.0777 27.1819 26.9397 26.3198 26.9397 25.2691C26.9397 24.2183 26.0777 23.3562 25.0269 23.3562H24.8187V18.4129H25.0269C26.0777 18.4129 26.9397 17.5521 26.9397 16.5013C26.9397 15.4505 26.0777 14.5885 25.0269 14.5885H24.8187V9.64519H25.0269C26.0777 9.64519 26.9397 8.78314 26.9397 7.73236C26.9397 6.68158 26.0777 5.82075 25.0269 5.82075H24.8187V3.22121C24.8187 1.95249 23.7825 0.916322 22.5138 0.916322L2.77924 0.914795ZM2.77924 1.89008H22.5138C23.2602 1.89008 23.8434 2.47453 23.8434 3.21968V5.81922H23.6352C22.5844 5.81922 21.7223 6.68005 21.7223 7.73083C21.7223 8.78162 22.5844 9.64366 23.6352 9.64366H23.8434V14.587H23.6352C22.5844 14.587 21.7223 15.449 21.7223 16.4998C21.7223 17.5506 22.5844 18.4114 23.6352 18.4114H23.8434V23.3547H23.6352C22.5844 23.3547 21.7223 24.2167 21.7223 25.2675C21.7223 26.3183 22.5844 27.1804 23.6352 27.1804H23.8434V29.7787C23.8434 30.5238 23.2602 31.1095 22.5138 31.1095L2.77924 31.1107C2.03287 31.1107 1.446 30.5263 1.446 29.7799V3.21937C1.446 2.47422 2.03287 1.89008 2.77924 1.89008ZM23.6353 6.79317H25.027C25.5554 6.79317 25.9645 7.2035 25.9645 7.73071C25.9645 8.25914 25.5554 8.66947 25.027 8.66947H23.6353C23.1069 8.66947 22.6977 8.25914 22.6977 7.73071C22.6977 7.20228 23.1069 6.79317 23.6353 6.79317ZM9.3275 7.5079C9.19722 7.5079 9.07302 7.56026 8.9817 7.65158L6.7596 9.87368L5.61627 8.73035C5.52495 8.63903 5.40075 8.5879 5.27168 8.5879C5.14262 8.5879 5.01842 8.63903 4.92709 8.73035C4.83456 8.82167 4.78342 8.94587 4.78342 9.07616C4.78342 9.20522 4.83456 9.32942 4.92709 9.42074L6.41498 10.905L6.41376 10.9062C6.5063 10.9975 6.63049 11.0499 6.75956 11.0499C6.88984 11.0499 7.01404 10.9975 7.10537 10.9062L9.67205 8.34316H9.67084C9.76337 8.25062 9.81451 8.12643 9.81451 7.99736C9.81451 7.86829 9.76337 7.74288 9.67084 7.65155C9.58073 7.56023 9.45657 7.50912 9.3275 7.5079ZM12.2814 8.79125C12.1511 8.79125 12.0269 8.84239 11.9356 8.93371C11.843 9.02624 11.7919 9.15044 11.7931 9.28072C11.7931 9.40979 11.8443 9.53398 11.9368 9.62531C12.0281 9.71663 12.1523 9.76777 12.2814 9.76655H18.9503C19.0806 9.76777 19.2047 9.71663 19.2961 9.62531C19.3874 9.53399 19.4397 9.4098 19.4397 9.28072C19.4397 9.15044 19.3886 9.02625 19.2973 8.93371C19.2048 8.84239 19.0806 8.79125 18.9503 8.79125H12.2814ZM9.3275 14.7283C9.19722 14.7283 9.07302 14.7794 8.9817 14.8707L6.7596 17.0928L5.61627 15.9495C5.52495 15.8582 5.40075 15.807 5.27168 15.807C5.14262 15.807 5.01842 15.8582 4.92709 15.9495C4.83456 16.0408 4.78342 16.165 4.78342 16.2953C4.78342 16.4244 4.83456 16.5485 4.92709 16.6399L6.41498 18.1241L6.41376 18.1253C6.5063 18.2166 6.63049 18.269 6.75956 18.269C6.88984 18.269 7.01404 18.2166 7.10537 18.1253L9.67205 15.5623L9.67084 15.5611C9.76337 15.4698 9.81451 15.3456 9.81451 15.2165C9.81451 15.0862 9.76337 14.962 9.67084 14.8707C9.57952 14.7794 9.45657 14.7283 9.3275 14.7283ZM23.6353 15.5611H25.027C25.5554 15.5611 25.9645 15.9714 25.9645 16.4998C25.9645 17.0283 25.5554 17.4374 25.027 17.4374H23.6353C23.1069 17.4374 22.6977 17.0271 22.6977 16.4998C22.6977 15.9714 23.1069 15.5611 23.6353 15.5611ZM12.2812 16.0116C12.1509 16.0104 12.0267 16.0627 11.9354 16.1541C11.8429 16.2454 11.7917 16.3708 11.7929 16.4999C11.7929 16.6289 11.8453 16.7531 11.9366 16.8444C12.0279 16.9345 12.1521 16.9857 12.2812 16.9857H18.9501C19.0791 16.9857 19.2033 16.9345 19.2959 16.8444C19.3872 16.7531 19.4383 16.6289 19.4396 16.4999C19.4396 16.3708 19.3884 16.2454 19.2971 16.1541C19.2046 16.0627 19.0804 16.0104 18.9501 16.0116H12.2812ZM9.32731 21.9474C9.19703 21.9474 9.07283 21.9985 8.98151 22.091L6.75941 24.3119L5.61608 23.1698C5.52476 23.0773 5.40057 23.0261 5.27149 23.0261C5.14243 23.0261 5.01824 23.0773 4.92691 23.1698C4.83437 23.2611 4.78323 23.3841 4.78323 23.5144C4.78323 23.6435 4.83437 23.7677 4.92691 23.859L6.41479 25.3481H6.41357C6.50611 25.4394 6.6303 25.4905 6.75938 25.4905C6.88966 25.4905 7.01385 25.4394 7.10518 25.3481L9.67186 22.7802H9.67065C9.76318 22.6889 9.81432 22.5647 9.81432 22.4356C9.81432 22.3065 9.76319 22.1823 9.67065 22.091C9.58055 21.9985 9.45639 21.9474 9.32731 21.9474ZM12.2812 23.2307C12.1509 23.2295 12.0267 23.2806 11.9354 23.3732C11.8429 23.4645 11.7917 23.5887 11.7929 23.719C11.7929 23.848 11.8453 23.9722 11.9366 24.0623C12.0279 24.1537 12.1521 24.2048 12.2812 24.2048H18.9501C19.0791 24.2048 19.2033 24.1537 19.2959 24.0636C19.3872 23.9722 19.4383 23.848 19.4396 23.719C19.4396 23.5887 19.3884 23.4645 19.2971 23.3732C19.2046 23.2806 19.0804 23.2295 18.9501 23.2307L12.2812 23.2307ZM23.6353 24.3302H25.027C25.5554 24.3302 25.9645 24.7405 25.9645 25.2689C25.9645 25.7974 25.5554 26.2065 25.027 26.2065H23.6353C23.1069 26.2065 22.6977 25.7961 22.6977 25.2689C22.6977 24.7405 23.1069 24.3302 23.6353 24.3302Z" fill="#666666"/>
</svg>
