<svg width="29" height="31" viewBox="0 0 29 31" fill="none" xmlns="http://www.w3.org/2000/svg">
<path d="M22.4358 10.5646C21.8011 8.12082 20.1824 6.53394 17.9291 6.53394C16.8183 6.53394 15.644 6.94653 14.5014 7.70823C13.3589 6.94653 12.1528 6.53394 11.042 6.53394C8.7569 6.53394 6.97959 8.12082 6.53526 10.5964C5.86877 14.0558 7.96346 18.626 14.0888 21.1016C14.2158 21.165 14.3745 21.1968 14.5331 21.1968C14.6918 21.1968 14.8188 21.165 14.9457 21.1016C21.0394 18.5626 23.0706 13.9923 22.4358 10.5646ZM14.5014 19.8638C9.07427 17.6739 7.20175 13.7384 7.77303 10.8185C8.12214 8.94601 9.39165 7.77171 11.042 7.77171C11.9941 7.77171 13.0732 8.1843 14.1206 8.97774L14.5014 9.26338L14.8823 8.97774C15.9296 8.21604 16.9769 7.80345 17.9291 7.80345C19.5794 7.80345 20.8489 8.94601 21.198 10.8185C21.8011 13.7067 19.9285 17.6422 14.5014 19.8638Z" fill="#666666" stroke="#FDF7F3" stroke-width="0.25"/>
<path d="M12.1196 24.2118L8.72371 19.705C8.15243 18.9433 7.07335 18.7529 6.27991 19.2607C5.48647 19.7685 5.20083 20.8476 5.67689 21.6727L6.88292 23.8309L6.24817 23.9261L4.15349 21.1967L4.05827 16.2456C4.05827 15.23 3.20136 14.5 2.18575 14.5C1.20189 14.5 0.376709 15.2617 0.376709 16.2456V22.8788C0.376709 23.4183 0.598872 23.9261 0.947986 24.307L6.56555 30.7497L12.7544 30.6863L12.5957 25.3861C12.564 24.9417 12.4053 24.5291 12.1196 24.2118ZM7.13683 29.4802L1.90012 23.4818L1.86838 23.4501C1.70969 23.2914 1.64621 23.0692 1.64621 22.8788V16.2773C1.64621 15.9917 1.90012 15.8012 2.21749 15.8012C2.53487 15.8012 2.78877 15.9917 2.78877 16.3091L2.88398 21.7362L5.70863 25.3543L8.88239 24.8465L6.78771 21.1015C6.66076 20.8476 6.72424 20.5302 6.97814 20.3715C7.23204 20.2128 7.54941 20.2763 7.7081 20.4984L11.1358 25.0052C11.2627 25.1322 11.3262 25.3226 11.3262 25.4813L11.4531 29.4485L7.13683 29.4802Z" fill="#666666" stroke="#FDF7F3" stroke-width="0.25"/>
<path d="M28.6233 16.2776C28.6233 15.2937 27.8298 14.532 26.8142 14.532H26.7825C25.7669 14.532 24.9417 15.262 24.9417 16.2776C24.91 17.8644 24.8782 20.4987 24.8465 21.2604L22.7518 23.9581L22.1171 23.8629L23.3231 21.7047C23.7992 20.8795 23.5135 19.8005 22.7201 19.2926C21.9266 18.7848 20.8476 18.9753 20.2763 19.737L16.8804 24.1803C16.5947 24.5294 16.436 24.942 16.4043 25.3863L16.2139 30.6548L22.4344 30.75L28.052 24.339C28.4329 23.9581 28.6233 23.4503 28.6233 22.9108V16.2776ZM27.0999 23.4503L21.8314 29.4805L17.5468 29.4487L17.6738 25.4815C17.6738 25.2911 17.7373 25.1324 17.8642 24.9737L21.2602 20.4669C21.4188 20.2448 21.768 20.1813 21.9901 20.34C22.244 20.4987 22.3075 20.8161 22.1805 21.07L20.0859 24.815L23.2596 25.3228L26.0843 21.673V21.4508C26.0843 21.4508 26.1477 18.1501 26.1795 16.2776C26.1795 15.9602 26.4334 15.7698 26.7508 15.7698H26.7825C27.0681 15.7698 27.322 15.9284 27.322 16.2458V22.879C27.3538 23.1329 27.2586 23.2916 27.0999 23.4503Z" fill="#666666" stroke="#FDF7F3" stroke-width="0.25"/>
<path d="M15.1347 0.25H13.8652V4.05853H15.1347V0.25Z" fill="#666666" stroke="#FDF7F3" stroke-width="0.25"/>
<path d="M23.4466 1.96895L22.3306 1.36377L20.4848 4.76765L21.6008 5.37283L23.4466 1.96895Z" fill="#666666" stroke="#FDF7F3" stroke-width="0.25"/>
<path d="M8.53953 4.75848L6.69336 1.35498L5.57746 1.96028L7.42363 5.36378L8.53953 4.75848Z" fill="#666666" stroke="#FDF7F3" stroke-width="0.25"/>
</svg>
