<svg width="52" height="52" viewBox="0 0 52 52" fill="none" xmlns="http://www.w3.org/2000/svg">
<rect width="52" height="52" rx="26" fill="#CF0337"/>
<path d="M24.7603 15.2154C24.4987 15.2041 24.233 15.2323 23.9686 15.303C22.5591 15.6805 21.7108 17.1494 22.0883 18.5589C22.4658 19.9698 23.9333 20.8166 25.3442 20.4391C26.7551 20.0617 27.6019 18.5928 27.2244 17.1833C26.9177 16.0367 25.8913 15.2634 24.7603 15.2154ZM24.7108 16.6036C25.2523 16.622 25.7315 16.9868 25.88 17.5424C26.0638 18.2252 25.6679 18.9095 24.9851 19.0933C24.3022 19.2757 23.618 18.8812 23.4342 18.1984C23.2518 17.5155 23.6462 16.8313 24.3291 16.6475C24.4577 16.6135 24.585 16.5994 24.7108 16.6036Z" fill="white" stroke="#CF0337" stroke-width="0.25"/>
<path d="M22.6962 12.1402C21.9087 12.1402 21.134 12.3113 20.5289 12.8061C19.9238 13.3009 19.5732 14.1095 19.5732 15.0751V17.7372C19.5732 18.6773 19.9733 19.4704 20.5756 19.9638C21.1778 20.4572 21.9398 20.6721 22.6948 20.6721H24.2994C24.6839 20.6721 24.9964 20.3597 24.9964 19.9751C24.9964 19.5906 24.6839 19.2795 24.2994 19.2795H22.6948C22.2099 19.2795 21.7589 19.1339 21.4577 18.8865C21.1566 18.6405 20.9643 18.314 20.9643 17.7372V15.0751C20.9643 14.4106 21.1425 14.101 21.4083 13.8833C21.6741 13.667 22.1123 13.5327 22.6934 13.5327H29.1102C29.6912 13.5327 30.1309 13.667 30.3953 13.8833C30.6611 14.0996 30.8392 14.4106 30.8392 15.0751V17.7372C30.8392 18.3154 30.6469 18.6405 30.3458 18.8865C30.0447 19.1325 29.5937 19.2795 29.1088 19.2795H29.113C28.7285 19.2795 28.416 19.5906 28.416 19.9751C28.416 20.1603 28.4895 20.337 28.621 20.4685C28.7511 20.5986 28.9278 20.6721 29.113 20.6721C29.8679 20.6721 30.63 20.4572 31.2322 19.9638C31.8345 19.4704 32.2346 18.6773 32.2346 17.7372V15.0751C32.2346 14.1095 31.8854 13.3009 31.2789 12.8061C30.6738 12.3112 29.8991 12.1402 29.1116 12.1402H22.6962Z" fill="white" stroke="#CF0337" stroke-width="0.25"/>
<path d="M18.4794 10C16.7023 10 15.249 11.4519 15.249 13.229V38.771C15.249 40.5481 16.7023 42 18.4794 42H33.5204C35.2975 42 36.7508 40.5481 36.7508 38.771V13.229C36.7508 11.4519 35.2975 10 33.5204 10H18.4794ZM18.4794 11.3926H33.5204C34.5496 11.3926 35.3582 12.1998 35.3582 13.229V38.771C35.3582 39.8002 34.551 40.6074 33.5204 40.6074H18.4794C17.4502 40.6074 16.6416 39.8002 16.6416 38.771V13.229C16.6416 12.1998 17.4488 11.3926 18.4794 11.3926Z" fill="white" stroke="#CF0337" stroke-width="0.25"/>
<path d="M27.1665 18.4768C26.9063 18.4782 26.6349 18.515 26.3592 18.5899C25.911 18.7101 25.518 18.8515 25.2028 19.1596C24.9073 19.4495 24.7292 19.7789 24.4436 20.2765L22.9224 21.6959L20.3169 20.9919C20.2759 20.9805 20.232 20.9735 20.1896 20.9707C20.1896 20.9707 19.8235 20.9367 19.4064 21.0682C18.9908 21.1983 18.4323 21.58 18.2528 22.2501C18.0718 22.9259 18.3744 23.538 18.6727 23.8589C18.9724 24.1798 19.3089 24.3353 19.3089 24.3353V24.3339C19.3527 24.3551 19.3979 24.3707 19.4446 24.382L23.3819 25.3462C23.5954 25.3985 23.8216 25.3462 23.9912 25.2062L25.4983 23.9565L26.1302 26.3146L23.4427 27.8386C22.996 28.0917 22.5817 28.4635 22.299 28.9597C22.0162 29.4559 21.8848 30.0992 22.0586 30.7523C22.5421 32.5563 23.437 35.6806 23.437 35.6806L23.4328 35.665C23.4328 35.665 23.5233 36.051 23.8343 36.3973C24.1439 36.7437 24.8041 37.0434 25.511 36.8554C26.2179 36.6659 26.6406 36.0877 26.7523 35.6367C26.864 35.1857 26.7706 34.8012 26.7706 34.8012C26.7692 34.7955 26.7678 34.7913 26.7678 34.7856L25.7824 30.7452L29.2206 29.019H29.2192C29.232 29.0134 29.2433 29.0063 29.2546 28.9992C29.9629 28.5907 30.4746 28.0874 30.7574 27.4964C31.0401 26.9041 31.0627 26.2481 30.903 25.6487L29.427 20.1392C29.2744 19.568 28.8969 19.0534 28.3455 18.7551C28.0006 18.5699 27.5991 18.4738 27.1651 18.4766L27.1665 18.4768ZM27.1749 19.8665C27.3941 19.8637 27.5581 19.9132 27.6853 19.981C27.8889 20.0913 28.0204 20.2652 28.0826 20.4999L29.5585 26.0093C29.6504 26.3515 29.6335 26.6201 29.5006 26.8972C29.3691 27.1729 29.0962 27.4811 28.5703 27.7864L24.6613 29.7501C24.3714 29.8957 24.2202 30.2223 24.2965 30.5376L25.4105 35.1039C25.4105 35.1053 25.4247 35.2028 25.4006 35.3018C25.3766 35.4008 25.4176 35.4375 25.1518 35.5096C24.8846 35.5817 24.9327 35.5337 24.8733 35.4686C24.8154 35.4036 24.7814 35.3117 24.7814 35.3117C24.78 35.306 24.7786 35.3018 24.7772 35.2962C24.7772 35.2962 23.8809 32.1676 23.4044 30.3918C23.3281 30.1062 23.3761 29.8843 23.509 29.6496C23.6433 29.4149 23.8808 29.1915 24.1297 29.0502L27.2851 27.2604V27.259C27.5622 27.102 27.6965 26.7797 27.6146 26.4729L26.5627 22.5454V22.5468C26.502 22.3178 26.3281 22.1354 26.1019 22.0633C25.8757 21.9912 25.6283 22.0393 25.4459 22.1905L23.3733 23.9097L19.8715 23.0529C19.8319 23.0289 19.7655 22.9851 19.6934 22.9087C19.5944 22.8013 19.5548 22.7758 19.5986 22.6104C19.6439 22.4394 19.6919 22.4379 19.8234 22.3969C19.9224 22.3658 19.9987 22.3616 20.0411 22.3616L22.9337 23.1434V23.142C23.1655 23.2042 23.4143 23.142 23.5911 22.978L25.4713 21.2221V21.2235C25.5208 21.1755 25.5646 21.1218 25.5986 21.0624C25.9195 20.5068 26.092 20.2382 26.1768 20.1548C26.2616 20.0713 26.321 20.0417 26.7197 19.9356C26.8936 19.889 27.0435 19.8693 27.1749 19.8665Z" fill="white" stroke="#CF0337" stroke-width="0.25"/>
</svg>
