<svg width="40" height="40" viewBox="0 0 40 40" fill="none" xmlns="http://www.w3.org/2000/svg">
  <circle cx="20" cy="20" r="18" stroke="#DB2777" stroke-width="2" fill="#FDF2F8"/>
  <path d="M20 10C14.5 10 10 14.5 10 20C10 25.5 14.5 30 20 30C25.5 30 30 25.5 30 20C30 14.5 25.5 10 20 10ZM20 28C15.6 28 12 24.4 12 20C12 15.6 15.6 12 20 12C24.4 12 28 15.6 28 20C28 24.4 24.4 28 20 28Z" fill="#DB2777"/>
  <path d="M20 15C18.9 15 18 15.9 18 17H20C20 16.9 20.1 16.8 20.2 16.7C20.3 16.6 20.4 16.6 20.5 16.6C20.6 16.6 20.7 16.6 20.8 16.7C20.9 16.8 21 16.9 21 17C21 17.1 20.9 17.2 20.8 17.3C20.7 17.4 20.6 17.4 20.5 17.4C19.7 17.4 19 18.1 19 18.9V21H21V19.8C21.6 19.6 22 19 22 18.2C22 17.8 21.8 17.4 21.5 17.1C21.2 16.8 20.8 16.6 20.4 16.6C20.3 16.6 20.1 16.6 20 16.6V15Z" fill="#DB2777"/>
  <path d="M19 22V24H21V22H19Z" fill="#DB2777"/>
</svg>