<svg width="52" height="52" viewBox="0 0 52 52" fill="none" xmlns="http://www.w3.org/2000/svg">
<rect width="52" height="52" rx="26" fill="#CF0337"/>
<path d="M24.3139 30.5482C24.6417 30.553 24.9584 30.4247 25.1896 30.1919L31.8374 23.5676C32.284 23.0878 32.2713 22.3419 31.8089 21.8779C31.3449 21.4155 30.599 21.4028 30.1192 21.8494L24.3138 27.6215L21.8814 25.1891C21.4047 24.7187 20.6399 24.7187 20.1632 25.1891C19.9336 25.4155 19.8037 25.7259 19.8037 26.049C19.8037 26.3721 19.9336 26.6809 20.1632 26.9073L23.4555 30.2075H23.4539C23.6867 30.4277 23.994 30.5498 24.3139 30.5482Z" fill="white" stroke="#CE0135" stroke-width="0.25"/>
<path d="M11.6322 30.3374C11.7399 30.6921 12.074 30.9296 12.443 30.9138C12.5222 30.9217 12.5998 30.9217 12.679 30.9138C12.8849 30.8521 13.0591 30.7095 13.1604 30.5195C13.2634 30.3295 13.2855 30.1062 13.2222 29.9003C11.9901 25.8479 12.7487 21.4533 15.2666 18.0488C17.7845 14.644 21.7657 12.6314 26.0005 12.6216C28.908 12.6121 31.7378 13.5607 34.0514 15.3217L34.262 15.4927L33.0712 15.4911C32.623 15.4911 32.2603 15.8554 32.2603 16.3019C32.2603 16.7501 32.623 17.1128 33.0712 17.1128H36.3556H36.354C36.5694 17.1128 36.7752 17.0288 36.9273 16.8768C37.0793 16.7248 37.1648 16.5173 37.1648 16.3019V13.027C37.1648 12.5789 36.8022 12.2162 36.354 12.2162C35.9058 12.2162 35.5432 12.5789 35.5432 13.027V14.4539C35.3722 14.3082 35.2027 14.1704 35.0238 14.0406H35.0254C32.433 12.0626 29.2609 10.9937 26.0003 11C21.2558 11.0079 16.7948 13.2551 13.9647 17.0636C11.1345 20.8722 10.2703 25.7924 11.6322 30.3374Z" fill="white" stroke="#CE0135" stroke-width="0.25"/>
<path d="M40.3679 21.6626C40.2317 21.2382 39.7788 21.0022 39.3544 21.1352C39.1469 21.197 38.9728 21.3395 38.8714 21.5296C38.7701 21.7196 38.7479 21.9429 38.8112 22.1487C40.0243 26.1996 39.253 30.586 36.7304 33.98C34.2077 37.3741 30.2281 39.3755 25.9997 39.3784C23.0922 39.3879 20.2625 38.4393 17.9488 36.6783L17.7382 36.5405H18.9307H18.9291C19.3773 36.5405 19.7399 36.1779 19.7399 35.7297C19.7399 35.2816 19.3773 34.9189 18.9291 34.9189H15.6463C15.1981 34.9189 14.8354 35.2816 14.8354 35.7297V38.973C14.8354 39.4211 15.1981 39.7838 15.6463 39.7838C16.0944 39.7838 16.4571 39.4211 16.4571 38.973V37.562C16.6281 37.7077 16.7975 37.8454 16.9765 37.9753H16.9749C19.5688 39.9484 22.7409 41.011 26 40.9999C30.7444 40.992 35.2055 38.7449 38.0356 34.9363C40.8657 31.1278 41.7298 26.2076 40.3679 21.6626Z" fill="white" stroke="#CE0135" stroke-width="0.25"/>
</svg>
