<svg width="40" height="40" viewBox="0 0 40 40" fill="none" xmlns="http://www.w3.org/2000/svg">
  <circle cx="20" cy="20" r="18" stroke="#DB2777" stroke-width="2" fill="#FDF2F8"/>
  <path d="M28 14H26V12C26 11.4 25.6 11 25 11H23C22.4 11 22 11.4 22 12V14H18V12C18 11.4 17.6 11 17 11H15C14.4 11 14 11.4 14 12V14H12C11.4 14 11 14.4 11 15V29C11 29.6 11.4 30 12 30H28C28.6 30 29 29.6 29 29V15C29 14.4 28.6 14 28 14ZM24 13H24.5V16.5H23.5V13H24ZM16 13H16.5V16.5H15.5V13H16ZM27 28H13V16H14V17.5C14 18.1 14.4 18.5 15 18.5H17C17.6 18.5 18 18.1 18 17.5V16H22V17.5C22 18.1 22.4 18.5 23 18.5H25C25.6 18.5 26 18.1 26 17.5V16H27V28Z" fill="#DB2777"/>
  <path d="M16 20H14V22H16V20Z" fill="#DB2777"/>
  <path d="M21 20H19V22H21V20Z" fill="#DB2777"/>
  <path d="M26 20H24V22H26V20Z" fill="#DB2777"/>
  <path d="M16 24H14V26H16V24Z" fill="#DB2777"/>
  <path d="M21 24H19V26H21V24Z" fill="#DB2777"/>
  <path d="M26 24H24V26H26V24Z" fill="#DB2777"/>
</svg>