<svg width="33" height="29" viewBox="0 0 33 29" fill="none" xmlns="http://www.w3.org/2000/svg">
<path d="M17.0222 3.43292L17.0226 3.43254C17.8263 2.62577 18.7814 1.98563 19.8332 1.54883C20.8849 1.11204 22.0125 0.887193 23.1513 0.887193C24.2901 0.887193 25.4177 1.11204 26.4694 1.54883C27.5211 1.98563 28.4762 2.62577 29.28 3.43254C30.8983 5.05977 31.8068 7.26145 31.8068 9.55644C31.8068 11.8513 30.8985 14.0528 29.2803 15.68C29.2802 15.6802 29.28 15.6803 29.2798 15.6805L17.0939 27.8664L17.0931 27.8672C17.016 27.945 16.9243 28.0067 16.8232 28.0488C16.7221 28.0909 16.6136 28.1126 16.5041 28.1126C16.3946 28.1126 16.2862 28.0909 16.1851 28.0488C16.084 28.0067 15.9923 27.945 15.9152 27.8672L15.9144 27.8664L3.72801 15.6801C3.72799 15.68 3.72796 15.68 3.72793 15.68C2.1039 14.0545 1.1921 11.8504 1.1931 9.55265C1.19411 7.25484 2.10787 5.05155 3.73338 3.42746C5.35889 1.80338 7.56298 0.891543 9.86079 0.892549C12.1586 0.893556 14.3619 1.80732 15.986 3.43283L15.9861 3.43292L16.3073 3.75419L16.5041 3.95099L16.7009 3.75419L17.0222 3.43292ZM16.3073 25.9113L16.5041 26.1081L16.7009 25.9113L28.1007 14.5116C28.7514 13.8616 29.2677 13.0899 29.6202 12.2404C29.9726 11.3909 30.1543 10.4802 30.1548 9.56052C30.1554 8.6408 29.9748 7.72998 29.6233 6.88007C29.2718 6.03015 28.7564 5.25778 28.1064 4.60706C27.4565 3.95634 26.6847 3.44001 25.8352 3.08756C24.9857 2.7351 24.0751 2.55342 23.1554 2.55288C22.2356 2.55235 21.3248 2.73297 20.4749 3.08444C19.625 3.4359 18.8526 3.95133 18.2019 4.60129L18.2018 4.60141L17.0939 5.70926L17.0931 5.71007C17.016 5.78783 16.9242 5.84954 16.8232 5.89165L16.9302 6.14856L16.8232 5.89166C16.7221 5.93377 16.6136 5.95545 16.5041 5.95545C16.3946 5.95545 16.2862 5.93377 16.1851 5.89166C16.084 5.84954 15.9923 5.78783 15.9152 5.71007L15.9144 5.70926L14.8065 4.60141L14.8064 4.60129C14.1557 3.95133 13.3833 3.4359 12.5334 3.08444C11.6835 2.73297 10.7726 2.55235 9.85292 2.55288C8.9332 2.55342 8.02259 2.7351 7.17308 3.08756C6.32358 3.44001 5.55181 3.95634 4.90185 4.60706C4.25188 5.25778 3.73646 6.03015 3.38499 6.88007C3.03352 7.72998 2.8529 8.6408 2.85343 9.56052C2.85397 10.4802 3.03565 11.3909 3.38811 12.2404C3.74057 13.0899 4.2569 13.8616 4.90761 14.5116L6.01536 15.6193L16.3073 25.9113Z" fill="#666666" stroke="#FDF7F3" stroke-width="0.556612"/>
<path d="M17.3335 12.2872V12.5655H17.6118H19.8275C20.0475 12.5655 20.2585 12.6529 20.4141 12.8085C20.5697 12.964 20.6571 13.175 20.6571 13.395C20.6571 13.6151 20.5697 13.8261 20.4141 13.9816C20.2585 14.1372 20.0475 14.2246 19.8275 14.2246H17.6118H17.3335V14.5029V16.7186C17.3335 16.9386 17.2461 17.1496 17.0905 17.3052C16.9349 17.4608 16.7239 17.5482 16.5039 17.5482C16.2839 17.5482 16.0729 17.4608 15.9174 17.3052C15.7618 17.1496 15.6744 16.9386 15.6744 16.7186V14.5029V14.2246H15.3961H13.1804C12.9604 14.2246 12.7494 14.1372 12.5938 13.9816C12.4382 13.8261 12.3508 13.6151 12.3508 13.395C12.3508 13.175 12.4382 12.964 12.5938 12.8085C12.7494 12.6529 12.9604 12.5655 13.1804 12.5655H15.3961H15.6744V12.2872V10.0715C15.6744 9.85147 15.7618 9.64047 15.9174 9.4849C16.0729 9.32933 16.2839 9.24193 16.5039 9.24193C16.7239 9.24193 16.9349 9.32933 17.0905 9.4849C17.2461 9.64047 17.3335 9.85147 17.3335 10.0715V12.2872Z" fill="#666666" stroke="#FDF7F3" stroke-width="0.556612"/>
</svg>
